<svg xmlns="http://www.w3.org/2000/svg" width="735" height="616" fill="none" viewBox="0 0 735 616"><path fill="#242424" d="M0 0h735v616H0z"/><g clip-path="url(#a)"><path fill="#fff" d="M-705-4157H735v8298H-705z"/><g clip-path="url(#b)"><mask id="c" width="738" height="616" x="0" y="0" maskUnits="userSpaceOnUse" style="mask-type:luminance"><path fill="#fff" d="M738 0H0v616h738z"/></mask><g mask="url(#c)"><path fill="#f2f5f8" d="M243.809 277.293c12.306 8.197 27.535 25.99 27.535 25.99 1.551 2.457 5.119 7.68 6.98 8.922 2.327 1.551 16.676 14.74 20.942 18.231s17.063 6.595 26.371 8.922 23.268-1.163 34.903-2.327 21.329 2.327 30.635 4.655c9.307 2.327 23.656 10.085 27.534 11.249s25.014 4.985 40.332 10.474c24.366 8.728 51.191 25.602 58.56 31.033 7.368 5.43 22.745 16.858 29.861 32.584 10.06 22.231-.644 42.542-1.939 62.454-1.42 15 6.891 35.117-5.43 50.816-6.573 8.378-15.206 12.459-22.275 15.803l-.217.101c-7.109 3.363-10.122 7.913-13.186 15.128-6.744 15.878 24.944 27.321 15.125 41.507-5.783 8.355-13.372 9.329-23.269 11.637-15.497 3.615-40.332-5.819-40.332-5.819-23.656-7.11-50.19-3.956-74.07-22.498-31.983-24.834-28.698-63.746-41.495-95.038-6.981-7.886-21.563-24.128-24.045-25.99-3.102-2.328-48.476-14.353-50.803-11.249s-3.49 19.007-6.592 25.602c-3.103 6.594-29.474 33.36-31.025 34.523s-15.512-10.085-24.82-19.007-6.98-.776-11.634-3.879-19.003-15.129-31.413-32.585c-12.409-17.455-19.002-12.413-34.127-20.171-15.124-7.758-50.803-22.499-56.232-28.317-5.358-5.741-6.87-16.126-8.468-27.107l-.064-.435c-2.055-14.111 1.94-36.464 1.94-36.464v-52.755c0-16.939-12.888-49.283 0-76.031 6.55-13.597 21.587-33.36 24.043-30.256s10.471 12.413 10.471 12.413l19.003 13.189 46.925 26.377 25.595 9.698s35.906 6.113 54.681 18.62"/><path fill="#ffeac7" d="M107.107 75.448c5.319-4.733 15.9-8.922 15.9-8.922l-1.551 14.74c3.813 18.427 11.673 55.472 12.603 56.248.931.776 55.328 64.328 82.41 96.007l16.869 12.995s-2.502 2.861-4.459 4.267c-10.216 7.342-19.535-2.672-31.607-6.206-26.821-7.853-40.928-16.685-63.213-33.554-5.064-3.834-12.175-3.942-12.603-10.28-.297-4.393 4.274-5.75 5.041-10.086 1.771-10.002-8.678-13.3-13.379-22.304-9.519-18.231-18.296-28.7-18.615-49.265-.275-17.737-.647-31.85 12.604-43.64"/><path fill="#d7ebff" d="M143.064 51.398C161.62 34.566 181.457 0 181.457 0h557.28v676.708H603.78l-27.923-39.179-21.523-34.136s-11.774-20.323-11.44-34.524c.248-10.547 2.811-16.474 7.368-25.99 3.432-7.161 7.892-9.783 11.052-17.068 4.356-10.031 3.921-16.664 5.042-27.541 1.47-14.241 2.098-22.495 0-36.658-1.241-8.394-4.293-12.685-5.042-21.141-.95-10.764 6.178-17.305 2.715-27.542-1.683-4.984-4.878-6.734-6.787-11.637-2.392-6.164 3.126-13.973-2.908-16.68-4.146-1.861-7.097 3.48-11.44 2.134-3.052-.946-4.239-2.686-6.593-4.849-4.685-4.31-4.223-9.549-9.308-13.383-5.619-4.243-17.257-5.237-17.257-5.237s-6.054-2.055-9.889-1.358c-4.689.854-5.515 6.882-10.277 6.595-2.808-.169-4.96-.615-6.593-2.909-1.838-2.594.167-4.97 0-8.147-.178-3.5 1.497-6.431-.969-8.921-1.552-1.57-3.7-.544-5.236-2.134-2.625-2.726 2.529-6.877 0-9.698-1.264-1.414-2.412-1.919-4.266-2.327-4.099-.904-5.604 3.702-9.695 4.655-8.159 1.901-13.589-.633-20.942-4.655-5.417-2.966-6.778-7.012-12.022-10.28-5.964-3.72-11.878-1.646-16.675-6.788-3.235-3.467-4.534-6.204-5.43-10.862-1.268-6.608 4.476-10.217 3.491-16.874-.92-6.233-2.762-10.054-7.369-14.352-4.157-3.884-7.547-6.995-13.185-6.207-1.563.219-2.703.102-3.877 1.164-2.02 1.83-.918 4.415 0 6.982.837 2.34 3.221 2.647 3.877 5.043 1.062 3.866-7.532 11.147-3.877 9.504 2.004-.901 1.833-3.273 3.877-4.073 1.764-.691 3.323-1.122 4.847 0 2.075 1.525 0 4.019 0 6.594 0 2.5 1.055 4.134 0 6.401-.857 1.845-4.231 1.725-3.684 3.685.334 1.187 1.245 1.546 2.327 2.133 2.133 1.156 3.894-.723 6.205 0 5.999 1.876 8.396 9.117 6.011 14.935-2.49 6.078-9.494 3.879-15.706 6.012-3.759 1.292-6.917 5.949-9.694 3.104-.946-.97-1.619-1.75-1.551-3.104.086-1.714 2.908-3.297 2.908-3.297l6.785-6.788s3.01-7.124 0-8.728c-1.602-.855-4.652 0-4.652 0s-14.119.268-22.105 3.879c-4.403 1.991-7.093 3.138-10.471 6.594-3.604 3.689-2.048 9.006-6.592 11.444-4.071 2.183-7.209 0-11.829 0-4.543 0-7.603 2.096-11.634 0-2.282-1.187-2.84-2.852-4.847-4.461-4.186-3.355-8.846-2.524-11.829-6.983-1.532-2.291-2.449-3.838-2.52-6.594-.09-3.46 2.484-4.835 3.49-8.146 1.293-4.254-1.893-8.696 1.745-11.25 1.849-1.297 3.606-.341 5.623-1.357 4.849-2.442 7.253-6.602 6.981-12.025l-.011-.212c-.168-3.384-.332-6.675-3.479-7.934-1.688-.675-2.864-.312-4.654 0-3.103.54-4.101 2.998-7.175 3.685-2.66.594-4.602-1.334-6.98 0-1.591.891-1.537 2.556-3.103 3.491-2.665 1.592-4.892.539-7.95 0-5.707-1.007-8.298-3.775-12.991-7.176-5.074-3.679-7.942-5.991-11.635-11.056-6.675-9.157-2.113-18.397-8.531-27.735-1.193-1.736-1.261-3.731-3.297-4.267-1.67-.44-2.661.527-4.266 1.163-7.322 2.904-5.321 12.469-12.41 15.905-5.282 2.561-9.107 2.491-14.93 1.745-11.613-1.487-15.221-10.18-24.238-17.65-17.575-14.558-26.105-24.477-40.138-42.476-11.664-14.958-26.759-40.536-26.759-40.536s-23.934-33.129-18.615-55.277c2.389-9.948 5.5-15.394 12.022-23.275 6.818-8.24 13.796-9.495 21.717-16.68"/><path stroke="#5c7b9a" stroke-linecap="round" stroke-linejoin="round" stroke-width="1.5" d="m435.087 101.228 2.85-1.445a7.97 7.97 0 0 1 7.225 0l.853.433a7.978 7.978 0 0 0 7.225 0l.853-.433a7.977 7.977 0 0 1 7.229 0l2.851 1.445m-29.086 7.377 2.85-1.447a7.98 7.98 0 0 1 7.225 0l.853.433a7.978 7.978 0 0 0 7.225 0l.853-.433a7.982 7.982 0 0 1 7.229 0l2.851 1.447m-29.086 7.375 2.85-1.447a7.98 7.98 0 0 1 7.225 0l.853.434a7.978 7.978 0 0 0 7.225 0l.853-.434a8 8 0 0 1 7.229 0l2.851 1.447m-29.086 7.375 2.85-1.445a7.98 7.98 0 0 1 7.225 0l.853.432a7.98 7.98 0 0 0 7.225 0l.853-.432a8 8 0 0 1 7.229 0l2.851 1.445"/><path fill="#5c7b9a" d="M405.198 139.434h4.266q3.006 0 4.336.9 1.338.89 1.338 2.803 0 1.33-.725 2.199-.727.86-2.118 1.115v.102q1.728.297 2.536 1.197.82.9.819 2.383-.001 2.005-1.369 3.13-1.373 1.125-3.824 1.125h-5.259zm1.881 6.362h2.761c1.175 0 2.025-.187 2.56-.562q.796-.563.795-1.882.002-1.228-.88-1.77-.867-.542-2.758-.542h-2.478zm0 1.575v5.421h3.017q1.803 0 2.668-.695.873-.696.873-2.107-.002-1.34-.923-1.974-.918-.645-2.761-.645zm13.325 7.017h-1.842v-15.915h1.842zm10.49 0-.356-1.596h-.082q-.837 1.054-1.675 1.432-.832.368-2.098.368-1.657 0-2.598-.869-.938-.87-.939-2.455 0-3.415 5.387-3.58l1.904-.071v-.665q0-1.278-.555-1.882-.553-.614-1.768-.614-.89 0-1.687.266-.788.267-1.482.593l-.562-1.38a8.4 8.4 0 0 1 1.85-.706 8 8 0 0 1 1.986-.256q2.03 0 3.024.901.995.899.993 2.863v7.651zm-3.792-1.279q1.546 0 2.423-.828.89-.839.889-2.373v-1.013l-1.656.072q-1.934.072-2.82.614-.882.542-.88 1.708c0 .586.174 1.036.531 1.35q.541.47 1.513.47m13.119 1.483q-2.424 0-3.773-1.483-1.35-1.493-1.35-4.275 0-2.823 1.361-4.347 1.369-1.534 3.894-1.534.82 0 1.617.174.808.163 1.33.429l-.562 1.534q-1.424-.531-2.424-.531-1.697 0-2.505 1.074-.81 1.063-.81 3.181 0 2.036.81 3.119c.539.716 1.334 1.074 2.393 1.074q1.482 0 2.912-.654v1.636q-1.164.603-2.893.603m7.384-5.983.625-.798.713-.859 3.591-3.794h2.145l-4.538 4.796 4.856 6.434h-2.218l-3.898-5.237-1.276 1.115v4.122h-1.823v-15.915h1.823v8.315l-.081 1.821zm23.536 1.78q0 1.953-1.407 3.078-1.412 1.126-3.929 1.125-2.657 0-4.111-.705v-1.801q.954.41 2.075.645c.76.157 1.462.235 2.117.235 1.117 0 1.963-.215 2.525-.644q.849-.645.849-1.77.002-.746-.306-1.227c-.206-.321-.547-.62-1.032-.9q-.715-.42-2.179-.951-2.075-.757-2.963-1.78-.89-1.033-.892-2.659 0-1.75 1.311-2.782c.88-.689 2.032-1.034 3.467-1.034q2.24 0 4.118.84l-.581 1.616c-1.284-.533-2.474-.798-3.58-.798q-1.328 0-2.086.573-.745.572-.745 1.605c0 .491.093.9.287 1.227q.292.481.939.88.655.4 2.044.91 1.67.614 2.485 1.197.819.573 1.206 1.33.389.746.388 1.79m7.539 4.203q-2.524 0-3.967-1.523-1.431-1.535-1.431-4.215 0-2.7 1.338-4.295 1.338-1.606 3.618-1.606 2.117 0 3.374 1.371 1.261 1.36 1.26 3.692v1.115h-7.69q.052 1.912.97 2.905.923.992 2.61.992c.601 0 1.167-.052 1.706-.154q.81-.164 1.893-.624v1.616a9 9 0 0 1-1.749.563q-.82.163-1.932.163m-.461-10.136q-1.32 0-2.087.849-.768.85-.907 2.363h5.712q-.016-1.575-.725-2.393-.702-.819-1.993-.819m14.438 9.932-.357-1.596h-.081q-.84 1.054-1.68 1.432-.825.368-2.094.368-1.657 0-2.598-.869-.94-.87-.939-2.455 0-3.415 5.387-3.58l1.9-.071v-.665q.001-1.278-.55-1.882-.553-.614-1.769-.614-.89 0-1.687.266c-.523.178-1.02.375-1.481.593l-.562-1.38a8.3 8.3 0 0 1 1.849-.706 8 8 0 0 1 1.982-.256q2.035 0 3.029.901c.659.599.993 1.554.993 2.863v7.651zm-3.793-1.279q1.543 0 2.424-.828.889-.839.888-2.373v-1.013l-1.656.072q-1.932.072-2.823.614-.878.542-.877 1.708-.002.879.532 1.35.54.47 1.512.47"/><path fill="#000" fill-opacity=".47" d="M28.452 156.405q-1.787 0-2.81 1.197t-1.023 3.273q0 2.144.993 3.311.992 1.158 2.825 1.159 1.182 0 2.658-.44v1.212a6.6 6.6 0 0 1-1.355.349 10 10 0 0 1-1.5.099q-2.446 0-3.772-1.486-1.318-1.492-1.318-4.219 0-1.713.629-3.001a4.6 4.6 0 0 1 1.84-1.985q1.212-.697 2.848-.697 1.758 0 3.06.652l-.56 1.182q-1.326-.606-2.515-.606m8.408 10.16q-1.871 0-2.94-1.13-1.06-1.136-1.06-3.121 0-2 .992-3.182.993-1.19 2.682-1.189 1.567 0 2.5 1.015.93 1.007.93 2.735v.826H34.27q.038 1.417.72 2.151.681.735 1.931.735.666 0 1.265-.113a7.5 7.5 0 0 0 1.401-.462v1.197q-.689.296-1.295.416a7.4 7.4 0 0 1-1.431.122m-.341-7.509q-.978 0-1.545.629-.57.629-.675 1.75h4.234q-.015-1.166-.537-1.772-.523-.607-1.477-.607m11.225 7.357v-5.319q0-1.015-.455-1.507-.446-.5-1.409-.5-1.28 0-1.863.712-.576.704-.575 2.303v4.311h-1.364v-8.319h1.099l.204 1.136h.076a2.55 2.55 0 0 1 1.083-.946 3.44 3.44 0 0 1 1.538-.341q1.53 0 2.272.742t.742 2.311v5.417zm6.703-.962q.265 0 .621-.053a2.7 2.7 0 0 0 .538-.122v1.046a3 3 0 0 1-.59.159q-.394.084-.803.084-2.44 0-2.44-2.569v-4.841H50.6v-.652l1.19-.545.545-1.773h.81v1.909h2.401v1.061h-2.4v4.803q0 .72.34 1.106.349.387.962.387m6.703-7.508q.554 0 .978.09l-.167 1.258a4 4 0 0 0-.901-.106q-.66 0-1.227.364a2.5 2.5 0 0 0-.88 1.007 3.1 3.1 0 0 0-.317 1.417v4.44h-1.364v-8.319h1.122l.151 1.523h.06q.478-.826 1.13-1.25a2.54 2.54 0 0 1 1.416-.424m7.514 8.47-.265-1.182h-.06q-.621.78-1.243 1.061-.612.272-1.552.273-1.227 0-1.924-.645-.697-.643-.697-1.818 0-2.53 3.992-2.652l1.408-.053v-.492q0-.947-.408-1.394-.41-.455-1.31-.455-.66 0-1.25.197a11 11 0 0 0-1.099.44l-.416-1.023q.629-.333 1.37-.523a6 6 0 0 1 1.47-.189q1.507 0 2.242.667.735.666.735 2.121v5.667zm-2.81-.947q1.144 0 1.795-.614.66-.621.66-1.758v-.749l-1.228.052q-1.43.053-2.09.455-.651.402-.652 1.265 0 .652.394 1 .402.35 1.121.349m7.749.947H72.24v-11.789h1.363zm6.855-11.077h3.158q2.227 0 3.212.667.992.66.992 2.076 0 .985-.538 1.629-.536.636-1.568.826v.075q1.28.22 1.879.887.606.666.606 1.765 0 1.485-1.015 2.319t-2.833.833h-3.893zm1.393 4.713h2.046q1.303 0 1.893-.417t.59-1.394q0-.909-.65-1.311-.644-.4-2.046-.401h-1.833zm0 1.167v4.015h2.235q1.334 0 1.977-.515.644-.515.644-1.561 0-.992-.682-1.462-.682-.477-2.045-.477zm12.044 5.349q-1.871 0-2.94-1.13-1.06-1.136-1.06-3.121 0-2 .993-3.182.992-1.19 2.68-1.189 1.57 0 2.5 1.015.932 1.007.932 2.735v.826h-5.696q.037 1.417.72 2.151.681.735 1.931.735.667 0 1.265-.113.6-.122 1.401-.462v1.197q-.689.296-1.295.416a7.4 7.4 0 0 1-1.431.122m-.341-7.509q-.978 0-1.545.629-.57.629-.675 1.75h4.234q-.015-1.166-.537-1.772-.523-.607-1.477-.607m10.695 7.357-.265-1.182h-.061q-.621.78-1.242 1.061-.614.272-1.553.273-1.227 0-1.924-.645-.696-.643-.696-1.818 0-2.53 3.991-2.652l1.409-.053v-.492q0-.947-.409-1.394-.41-.455-1.31-.455-.66 0-1.25.197a10 10 0 0 0-1.098.44l-.417-1.023q.63-.333 1.371-.523a6 6 0 0 1 1.469-.189q1.508 0 2.242.667.735.666.735 2.121v5.667zm-2.81-.947q1.143 0 1.795-.614.659-.621.659-1.758v-.749l-1.227.052q-1.433.053-2.091.455-.651.402-.651 1.265 0 .652.394 1 .402.35 1.121.349m9.718 1.099q-1.796 0-2.795-1.099-1-1.106-1-3.167 0-2.09 1.007-3.22 1.016-1.136 2.886-1.136.606 0 1.197.128.598.121.985.318l-.417 1.137q-1.053-.394-1.795-.394-1.257 0-1.856.796-.598.787-.598 2.356 0 1.507.598 2.31.599.796 1.773.796a5.1 5.1 0 0 0 2.158-.485v1.212q-.863.448-2.143.448m9.786-.152v-5.319q0-1.015-.455-1.507-.447-.5-1.409-.5-1.264 0-1.855.704-.584.705-.584 2.326v4.296h-1.363v-11.789h1.363v3.455q0 .682-.075 1.167h.091q.37-.606 1.052-.947a3.4 3.4 0 0 1 1.538-.341q1.515 0 2.28.727.765.72.765 2.311v5.417zM41.935 187.36v-11.077h1.393v9.835h4.84v1.242zm15.171-4.175q0 2.039-1.03 3.182-1.03 1.145-2.848 1.145-1.129 0-2-.523-.87-.531-1.34-1.515-.47-.986-.47-2.289 0-2.03 1.015-3.159 1.014-1.136 2.848-1.136 1.757 0 2.787 1.159 1.038 1.152 1.038 3.136m-6.28 0q0 1.568.614 2.387.621.811 1.826.811 1.19 0 1.81-.811.621-.819.621-2.387t-.629-2.356q-.62-.795-1.825-.795-2.415 0-2.416 3.151m13.74 4.175h-6.082v-.901l4.47-6.357h-4.205v-1.061h5.704v1.023l-4.4 6.243h4.514zm5.47.152q-1.872 0-2.94-1.129-1.06-1.137-1.06-3.122 0-2 .992-3.182.993-1.19 2.682-1.189 1.567 0 2.5 1.015.93 1.007.93 2.735v.826h-5.695q.038 1.416.72 2.152.681.735 1.931.734.666 0 1.265-.113a7.5 7.5 0 0 0 1.401-.462v1.197q-.69.296-1.295.416a7.4 7.4 0 0 1-1.431.122m-.341-7.509q-.978 0-1.546.629-.567.63-.674 1.75h4.234q-.015-1.166-.538-1.772-.522-.607-1.476-.607m11.225 7.357v-5.319q0-1.014-.455-1.507-.447-.5-1.409-.5-1.28 0-1.863.712-.576.705-.576 2.303v4.311h-1.363v-8.319h1.099l.204 1.137h.076a2.54 2.54 0 0 1 1.083-.947 3.44 3.44 0 0 1 1.537-.341q1.53 0 2.272.742.743.743.743 2.311v5.417zm7.46.152q-1.87 0-2.938-1.129-1.06-1.137-1.06-3.122 0-2 .991-3.182.993-1.19 2.682-1.189 1.567 0 2.5 1.015.93 1.007.931 2.735v.826H85.79q.038 1.416.72 2.152.681.735 1.93.734.667 0 1.266-.113a7.5 7.5 0 0 0 1.401-.462v1.197q-.689.296-1.295.416a7.4 7.4 0 0 1-1.432.122m-.34-7.509q-.978 0-1.546.629-.567.63-.674 1.75h4.235q-.016-1.166-.538-1.772-.523-.607-1.477-.607m8.339 6.395q.265 0 .621-.053a3 3 0 0 0 .538-.121v1.045a3 3 0 0 1-.59.159q-.395.084-.804.084-2.439 0-2.439-2.569v-4.841h-1.174v-.652l1.19-.545.545-1.773h.81v1.909h2.401v1.061h-2.4v4.803q0 .72.34 1.106.349.387.962.387m8.241-1.334q0 1.167-.871 1.811-.871.637-2.446.637-1.644 0-2.614-.523v-1.243q1.37.667 2.644.667 1.03 0 1.5-.333.468-.334.469-.894 0-.493-.454-.834-.447-.34-1.599-.78-1.174-.455-1.65-.773-.479-.326-.705-.727-.22-.402-.22-.977 0-1.023.833-1.614.834-.591 2.288-.591 1.416 0 2.651.56l-.462 1.084q-1.265-.531-2.28-.531-.849 0-1.288.273-.44.266-.439.735 0 .455.379.758.378.295 1.765.826 1.037.386 1.529.719.501.334.735.75.235.417.235 1"/><path stroke="#dcc9a9" stroke-linecap="round" stroke-linejoin="round" stroke-width="2" d="M80.061 136.544a12.18 12.18 0 0 0-8.634-3.594 12.18 12.18 0 0 0-8.635 3.594m17.997-21.183a9.73 9.73 0 0 0-7.413-.981 9.78 9.78 0 0 0-5.932 4.574l16.92 9.818a9.86 9.86 0 0 0 .977-7.45 9.8 9.8 0 0 0-4.552-5.961"/><path stroke="#dcc9a9" stroke-linecap="round" stroke-linejoin="round" stroke-width="2" d="M78.685 125.513c2.715-4.7 3.643-9.242 2.076-10.146s-5.035 2.171-7.748 6.871m2.836 1.637-4.913 8.509M56.2 140.66a3.9 3.9 0 0 1 1.637-.409 3.93 3.93 0 0 1 3.275 1.637 3.93 3.93 0 0 0 3.275 1.638 3.93 3.93 0 0 0 3.275-1.638 3.926 3.926 0 0 1 3.275-1.637 3.92 3.92 0 0 1 3.275 1.637 3.93 3.93 0 0 0 3.274 1.638 3.93 3.93 0 0 0 3.275-1.638 3.926 3.926 0 0 1 3.275-1.637 3.9 3.9 0 0 1 1.637.409"/><path fill="#ffeac7" d="M536.169 549.982c5.169-2.463 14.345-4.193 14.345-4.193l89.336 124.887-24.588 5.241s-49.158 6.136-59.625-12.227c-2.571-4.508-3.711-7.39-3.894-12.402-.205-5.671 7.601-9.434 3.894-14.147-3.362-4.275-14.958-3.32-14.958-3.32-1.148 0-.477-15.253 0-22.879.477-7.63-6.585-5.505-9.017-9.958-2.086-3.825-1.896-6.381-3.071-10.481-1.644-5.722-2.773-8.891-4.099-14.671-1.307-5.69-4.731-9.151-2.664-14.674 2.307-6.16 7.717-8.019 14.341-11.176"/><path stroke="#b3bcc2" stroke-width="2" d="m-35.905 313.726 13.248 5.569 11.356 3.427 10.514 2.785 39.954-6.212 25.235-3.856 29.019-1.713 62.666-1.071 129.746 82.679 7.36 8.138-4.626 9.213 9.252 5.997 6.94 16.281 13.248 17.56 54.254 53.551 42.896 43.481 34.488 44.768 13.461 15.85 3.362 1.498 22.291 20.136 14.931 21.207 16.614 36.413 5.255 11.137h-5.255l-35.12-64.901-20.186-19.279-4.626-2.568-6.31-4.713-41.848-56.55-42.897-42.836-53.834-53.978-15.561-18.422-6.939-16.92-7.15-2.999-36.59 66.612-9.673 14.352-77.596-50.121-23.552 41.553-3.154 2.145L55.99 627.307h-2.944v-2.354l80.119-133.014v-2.145l24.183-45.196-45.632-29.128-35.959-28.489-30.281-26.346-6.309-9.425-6.308-25.703-35.328 4.712-10.094-2.356-11.566-3.856-11.776-4.712v-3.856"/><path stroke="#b3bcc2" stroke-width="2" d="m37.065 323.793.583-.032m0 0 115.915-6.394 53.413 33.843-17.664 35.342-13.459 27.63-16.823 27.848-47.524-29.558-59.3-50.124-8.833-11.138zM283.52 397.475l-71.077-42.837-15.561 26.346-15.14 32.985-17.664 28.488 75.282 45.84 48.997-84.394zM-17.645 359.01l-18.421-11.443h-3.102v5.043l17.839 10.085 61.08 41.313 81.633 70.211 71.745 38.209 44.21 33.167 38.587 29.287 32.964 28.705 29.279 27.154 39.169 38.597 40.914 43.833 7.95-1.357-47.313-49.265-65.152-62.259-62.049-50.816-55.844-41.119-44.792-40.536-16.482-17.456-15.9-7.564-76.205-43.252z"/><path stroke="#dcc9a9" stroke-linecap="round" stroke-linejoin="round" stroke-width="2" d="M520.645 571.003a12.173 12.173 0 0 0-17.269 0m17.998-21.184a9.74 9.74 0 0 0-7.415-.982 9.8 9.8 0 0 0-5.933 4.574l16.92 9.818a9.84 9.84 0 0 0 .977-7.448 9.82 9.82 0 0 0-4.549-5.962"/><path stroke="#dcc9a9" stroke-linecap="round" stroke-linejoin="round" stroke-width="2" d="M519.268 559.971c2.715-4.698 3.642-9.241 2.075-10.144s-5.034 2.168-7.748 6.87m2.838 1.636-4.913 8.511m-14.737 8.274a4 4 0 0 1 1.637-.411 4 4 0 0 1 1.842.415c.57.287 1.062.706 1.435 1.226.372.516.865.935 1.435 1.222s1.202.427 1.838.415a3.948 3.948 0 0 0 3.277-1.637c.368-.52.861-.939 1.435-1.226a4 4 0 0 1 1.838-.415 4 4 0 0 1 1.838.415c.57.287 1.067.706 1.435 1.226a3.939 3.939 0 0 0 3.277 1.637 3.9 3.9 0 0 0 1.838-.415 4 4 0 0 0 1.435-1.222 3.94 3.94 0 0 1 1.435-1.226 4 4 0 0 1 1.842-.415c.566.02 1.129.159 1.637.411"/><path fill="#000" d="M239.06 408.081v-11.909h2.524v9.822h4.829v2.087zm11.212-4.57q0 1.351.439 2.044.448.694 1.45.695.993 0 1.425-.687.44-.69.44-2.052c0-.9-.147-1.579-.44-2.029q-.44-.675-1.441-.675-.994 0-1.434.675-.439.668-.439 2.029m6.294 0q0 2.223-1.173 3.48-1.172 1.252-3.265 1.253-1.31 0-2.312-.571a3.82 3.82 0 0 1-1.539-1.652q-.537-1.078-.537-2.51c0-1.486.388-2.645 1.164-3.468q1.164-1.238 3.273-1.237 1.311 0 2.313.57 1 .565 1.539 1.637.537 1.066.537 2.498m8.306 4.57h-7.19v-1.467l4.217-5.741h-3.965v-1.897h6.791v1.61l-4.104 5.598h4.251zm5.577-7.51q-.79.002-1.238.504c-.298.334-.469.803-.513 1.42h3.485c-.011-.617-.171-1.086-.48-1.42q-.464-.502-1.254-.504m.35 7.673q-2.198 0-3.436-1.215c-.825-.806-1.238-1.955-1.238-3.436q0-2.288 1.14-3.534c.766-.838 1.822-1.253 3.168-1.253q1.93-.002 3.004 1.098t1.075 3.037v1.206h-5.871q.042 1.059.627 1.653.586.593 1.645.593c.548 0 1.067-.054 1.555-.17a7.8 7.8 0 0 0 1.531-.543v1.92a5.8 5.8 0 0 1-1.392.481q-.741.162-1.808.163m14.135-.163h-2.483v-5.319q0-.984-.35-1.474-.35-.495-1.116-.496-1.043 0-1.506.698-.464.692-.464 2.308v4.283h-2.484v-9.105h1.898l.333 1.164h.139a2.6 2.6 0 0 1 1.14-.993q.732-.342 1.661-.341 1.587 0 2.41.861.822.856.822 2.475zm6.327-7.51q-.79.002-1.237.504c-.299.334-.47.803-.513 1.42h3.484c-.01-.617-.171-1.086-.48-1.42q-.463-.502-1.254-.504m.35 7.673q-2.198 0-3.436-1.215c-.825-.806-1.238-1.955-1.238-3.436q0-2.288 1.141-3.534c.765-.838 1.821-1.253 3.167-1.253q1.93-.002 3.005 1.098t1.074 3.037v1.206h-5.87q.04 1.059.627 1.653.586.593 1.644.593c.549 0 1.067-.054 1.555-.17a7.8 7.8 0 0 0 1.531-.543v1.92a5.8 5.8 0 0 1-1.392.481q-.741.162-1.808.163m9.568-1.979q.651-.001 1.563-.287v1.851q-.929.414-2.28.415-1.49 0-2.174-.749-.675-.758-.676-2.265v-4.392h-1.188v-1.047l1.367-.834.717-1.92h1.588v1.939h2.548v1.862h-2.548v4.392q0 .528.293.783.301.251.79.252m9.763-.888q0 1.402-.978 2.133-.968.734-2.907.734-.993 0-1.693-.14a6.3 6.3 0 0 1-1.311-.388v-2.056q.692.326 1.555.547.871.222 1.531.221 1.352 0 1.352-.783a.65.65 0 0 0-.179-.474q-.18-.184-.619-.415a16 16 0 0 0-1.173-.543q-1.05-.442-1.547-.814a2.36 2.36 0 0 1-.716-.858q-.22-.49-.22-1.194 0-1.217.936-1.874.945-.668 2.671-.667 1.644-.002 3.2.714l-.749 1.792a15 15 0 0 0-1.279-.481 4 4 0 0 0-1.213-.187q-1.1 0-1.099.594c0 .225.117.415.35.578q.358.246 1.555.725c.711.287 1.232.559 1.563.807q.498.377.733.865.237.489.237 1.164m-76.279 15.613q-1.425-.001-2.207 1.075c-.521.71-.781 1.707-.781 2.983q0 3.98 2.988 3.98 1.254-.001 3.037-.625v2.118q-1.466.61-3.273.609-2.597 0-3.974-1.571-1.376-1.581-1.376-4.531 0-1.856.676-3.246.675-1.402 1.938-2.145 1.27-.747 2.972-.749 1.734-.001 3.485.842l-.814 2.052q-.669-.322-1.344-.555a4 4 0 0 0-1.327-.237m5.276-1.482q0-1.214 1.352-1.214 1.351 0 1.351 1.214 0 .578-.342.904-.334.316-1.009.318-1.352 0-1.352-1.222m2.589 11.459h-2.483v-9.104h2.483zm6.449-1.815q.651-.001 1.564-.287v1.85q-.928.415-2.28.415-1.49.001-2.174-.748-.676-.758-.676-2.266v-4.391h-1.189v-1.047l1.368-.834.717-1.92h1.587v1.939h2.549v1.862h-2.549v4.391q0 .529.294.784.3.251.789.252m2.109-7.289h2.72l1.718 5.121q.22.669.301 1.582h.049a7 7 0 0 1 .35-1.582l1.686-5.121h2.662l-3.851 10.268q-.53 1.427-1.515 2.134-.977.71-2.288.709-.642 0-1.262-.139v-1.971c.299.07.625.109.977.109q.66 0 1.148-.407.497-.401.774-1.215l.147-.45zm20.381-.873q-1.425-.001-2.207 1.075c-.521.71-.781 1.707-.781 2.983q0 3.98 2.988 3.98 1.254-.001 3.037-.625v2.118q-1.465.61-3.273.609-2.598 0-3.974-1.571-1.376-1.581-1.376-4.531 0-1.856.676-3.246.676-1.402 1.938-2.145 1.27-.747 2.972-.749 1.734-.001 3.485.842l-.815 2.052q-.667-.322-1.343-.555a4 4 0 0 0-1.327-.237m9.152 2.467q-.79.002-1.238.505c-.298.333-.469.803-.513 1.419h3.485c-.011-.616-.171-1.086-.48-1.419q-.464-.503-1.254-.505m.35 7.673q-2.198.001-3.436-1.214-1.238-1.212-1.238-3.437 0-2.288 1.14-3.534c.765-.838 1.821-1.253 3.168-1.253q1.93 0 3.004 1.098 1.075 1.1 1.075 3.038v1.206h-5.871q.04 1.06.627 1.652.586.594 1.645.594a6.7 6.7 0 0 0 1.555-.171 7.7 7.7 0 0 0 1.531-.543v1.92a5.7 5.7 0 0 1-1.392.481q-.741.163-1.808.163m14.135-.163h-2.483v-5.318q0-.984-.35-1.474-.35-.495-1.116-.496-1.043 0-1.506.698-.464.69-.464 2.308v4.282h-2.484v-9.104h1.897l.334 1.164h.139a2.6 2.6 0 0 1 1.14-.993q.732-.343 1.661-.342 1.587 0 2.41.862.822.856.822 2.474zm6.392-1.815q.653-.001 1.563-.287v1.85q-.927.415-2.28.415-1.49.001-2.174-.748-.675-.758-.675-2.266v-4.391h-1.189v-1.047l1.368-.834.716-1.92h1.588v1.939h2.549v1.862h-2.549v4.391q0 .529.293.784.301.251.79.252m7.182-5.695q-.79.002-1.238.505c-.299.333-.47.803-.513 1.419h3.485c-.011-.616-.171-1.086-.48-1.419q-.465-.503-1.254-.505m.35 7.673q-2.199.001-3.436-1.214-1.238-1.212-1.238-3.437 0-2.288 1.14-3.534c.766-.838 1.821-1.253 3.168-1.253q1.93 0 3.004 1.098 1.075 1.1 1.075 3.038v1.206h-5.871q.04 1.06.627 1.652.586.594 1.645.594a6.7 6.7 0 0 0 1.555-.171 7.7 7.7 0 0 0 1.531-.543v1.92a5.7 5.7 0 0 1-1.392.481q-.741.163-1.808.163m10.813-9.438q.505 0 .839.07l-.187 2.332a2.8 2.8 0 0 0-.733-.082q-1.19 0-1.857.609-.66.611-.659 1.711v4.635h-2.484v-9.104h1.881l.367 1.528h.122a3.4 3.4 0 0 1 1.14-1.229 2.83 2.83 0 0 1 1.571-.47"/><path fill="#000" fill-opacity=".47" d="M478.525 593.377q-.001 2.661-1.345 4.182-1.344 1.524-3.758 1.524c-1.633 0-2.893-.496-3.789-1.493q-1.333-1.5-1.334-4.228 0-2.7 1.326-4.19 1.333-1.49 3.812-1.489 2.41 0 3.746 1.513c.896 1.004 1.342 2.401 1.342 4.181m-8.756 0q-.001 2.2.934 3.352c.621.768 1.524 1.152 2.719 1.152q1.778 0 2.703-1.137.923-1.139.923-3.367.002-2.217-.915-3.34c-.613-.752-1.509-1.128-2.696-1.128q-1.803-.001-2.734 1.144-.935 1.135-.934 3.324m16.156 5.555-.264-1.183h-.062q-.618.782-1.241 1.063c-.407.182-.927.271-1.551.271q-1.23.001-1.924-.644-.698-.644-.698-1.819 0-2.529 3.991-2.649l1.407-.055v-.492q0-.946-.407-1.393-.407-.453-1.311-.454c-.438 0-.857.062-1.248.194-.388.132-.757.28-1.098.443l-.419-1.025a6.3 6.3 0 0 1 2.843-.713c1.004 0 1.749.225 2.242.667q.733.668.733 2.122v5.667zm-2.808-.946q1.142-.001 1.796-.613.658-.622.659-1.758v-.752l-1.23.054q-1.432.052-2.09.454-.651.403-.651 1.265 0 .651.395 1.001.4.349 1.121.349m11.801-1.35q0 1.167-.873 1.811-.871.635-2.447.636-1.641 0-2.613-.523v-1.242q1.372.67 2.644.668 1.03-.001 1.501-.334a1.04 1.04 0 0 0 .469-.896q0-.49-.453-.83-.447-.343-1.598-.784-1.175-.452-1.652-.772-.478-.324-.706-.725-.219-.402-.217-.978-.001-1.025.83-1.613c.558-.396 1.318-.594 2.288-.594q1.419.002 2.652.563l-.461 1.082q-1.268-.529-2.28-.528-.851 0-1.288.272c-.295.174-.442.423-.442.733q.001.456.38.76.38.292 1.765.823 1.04.39 1.531.721.5.333.733.749.238.419.237 1.001m3.386 2.296h-1.366v-8.321h1.366zm-1.47-10.57c0-.303.073-.52.225-.66a.85.85 0 0 1 .578-.202q.319-.001.55.202c.163.14.245.357.245.66q0 .448-.245.659a.78.78 0 0 1-.55.213.82.82 0 0 1-.578-.213q-.227-.211-.225-.659m9.52 8.274q0 1.167-.872 1.811-.869.635-2.447.636-1.642 0-2.61-.523v-1.242c.911.447 1.795.668 2.641.668q1.03-.001 1.501-.334a1.04 1.04 0 0 0 .469-.896q0-.49-.454-.83-.447-.343-1.598-.784-1.175-.452-1.652-.772-.478-.324-.705-.725-.217-.402-.218-.978-.001-1.025.834-1.613.832-.594 2.284-.594 1.42.002 2.653.563l-.462 1.082q-1.268-.529-2.28-.528-.847 0-1.287.272c-.295.174-.439.423-.439.733q0 .456.377.76.379.292 1.764.823c.694.26 1.202.5 1.532.721q.5.333.733.749.237.419.236 1.001m6.24-8.779h3.161q2.228 0 3.211.664c.659.442.993 1.132.993 2.079q0 .983-.539 1.625-.537.64-1.567.826v.078q1.279.22 1.877.884.605.67.605 1.769 0 1.483-1.012 2.316c-.679.555-1.621.834-2.835.834h-3.894zm1.396 4.71h2.044c.869 0 1.501-.136 1.893-.416.395-.279.593-.74.593-1.392q0-.912-.651-1.311-.647-.403-2.048-.404h-1.831zm0 1.167v4.015h2.234q1.333 0 1.978-.516.642-.512.644-1.559-.001-.991-.683-1.463-.68-.477-2.044-.477zm12.042 5.349q-1.868 0-2.94-1.128-1.059-1.134-1.058-3.123-.001-1.998.992-3.181c.66-.791 1.555-1.191 2.68-1.191 1.047 0 1.881.342 2.502 1.017q.93 1.006.93 2.734v.826h-5.697c.027.947.268 1.661.722 2.153q.68.734 1.931.734.664-.001 1.264-.113.599-.123 1.4-.462v1.195a6.5 6.5 0 0 1-1.295.419q-.605.121-1.431.12m-.341-7.506c-.652 0-1.164.21-1.544.629q-.57.628-.675 1.749h4.235q-.016-1.168-.539-1.773t-1.477-.605m10.695 7.355-.263-1.183h-.062q-.62.782-1.241 1.063-.615.272-1.555.271-1.227.001-1.924-.644-.693-.644-.694-1.819 0-2.529 3.99-2.649l1.408-.055v-.492q0-.946-.407-1.393-.411-.453-1.311-.454c-.438 0-.857.062-1.249.194q-.585.198-1.101.443l-.415-1.025a6.3 6.3 0 0 1 1.369-.523c.496-.124.985-.19 1.47-.19 1.008 0 1.753.225 2.245.667q.733.668.733 2.122v5.667zm-2.807-.946q1.14-.001 1.791-.613.662-.622.66-1.758v-.752l-1.226.054q-1.432.052-2.09.454-.652.403-.652 1.265.001.651.392 1.001.403.349 1.125.349m9.714 1.097q-1.791.001-2.792-1.097-1-1.105-1.001-3.17-.002-2.09 1.009-3.219 1.012-1.136 2.885-1.137.606 0 1.195.132.6.118.985.318l-.415 1.137q-1.052-.396-1.796-.396-1.257 0-1.858.795c-.395.528-.597 1.311-.597 2.359 0 1.004.202 1.773.597 2.308q.602.796 1.773.795 1.1.002 2.16-.485v1.214c-.574.299-1.292.446-2.145.446m9.789-.151v-5.318c0-.679-.152-1.179-.454-1.509q-.447-.5-1.412-.5c-.841 0-1.462.236-1.854.706-.387.469-.585 1.245-.585 2.327v4.294h-1.361v-11.788h1.361v3.456q.001.681-.074 1.164h.089a2.56 2.56 0 0 1 1.055-.947 3.4 3.4 0 0 1 1.536-.341q1.518 0 2.28.729c.512.481.764 1.249.764 2.312v5.415z"/><path fill="coral" d="M72.197 523.836v15.614h20.037v-15.614l-10.019-8.634zm-1.643-1.28 11.02-9.5a.98.98 0 0 1 .641-.24c.235 0 .462.085.641.24l11.02 9.5q.172.147.267.357c.062.136.094.287.094.439v17.133c0 .276-.105.54-.293.734a.98.98 0 0 1-.708.302h-22.04a.98.98 0 0 1-.71-.302 1.05 1.05 0 0 1-.293-.734v-17.133a1.06 1.06 0 0 1 .361-.796"/><path fill="coral" d="M82.216 545.788a5.43 5.43 0 0 0 5.429-5.431 5.43 5.43 0 1 0-10.859 0c0 3 2.43 5.431 5.43 5.431"/><path fill="#d5dbe1" d="m113.461 303.218.956.664c-25.53 36.783-37.538 81.693-33.94 127 3.6 45.304 22.579 88.152 53.667 121.163 31.087 33.011 72.327 54.11 116.609 59.672 44.28 5.567 88.838-4.744 126.002-29.155l.638.974.639.969c-37.628 24.718-82.742 35.157-127.569 29.524-44.827-5.636-86.561-26.991-118.013-60.386-31.451-33.399-50.651-76.748-54.292-122.579s8.506-91.278 34.347-128.509zm70.475 31.185.861.782a123.7 123.7 0 0 0-24.82 41.374 123.691 123.691 0 0 0 33.31 133.309 123.6 123.6 0 0 0 41.363 24.826 123.6 123.6 0 0 0 47.713 7.103 123.6 123.6 0 0 0 46.799-11.7 123.7 123.7 0 0 0 38.761-28.721l.861.78.862.784a126 126 0 0 1-39.49 29.264 125.933 125.933 0 0 1-138.433-20.614 125.998 125.998 0 0 1-41.173-87.194 126.005 126.005 0 0 1 32.524-90.775zm47.634 51.838.862.782a54.266 54.266 0 0 0 21.874 87.541 54.2 54.2 0 0 0 20.936 3.119 54.2 54.2 0 0 0 20.535-5.136 54.2 54.2 0 0 0 17.007-12.603l.863.783.861.78a56.55 56.55 0 0 1-39.153 18.5c-7.42.36-14.84-.745-21.834-3.251a56.6 56.6 0 0 1-18.927-11.362 56.57 56.57 0 0 1-18.494-39.163 56.6 56.6 0 0 1 3.25-21.84 56.6 56.6 0 0 1 11.359-18.932zm54.481-15.823a56.58 56.58 0 0 1 42.896 57.655l-1.162-.058-1.162-.054a54.28 54.28 0 0 0-10.666-35.013 54.25 54.25 0 0 0-30.466-20.271l.28-1.13z"/><path fill="#1d1e22" d="M80.392 499.895a3.1 3.1 0 0 1 .575 1.846q0 1.537-.927 2.405c-.618.578-1.51.865-2.659.865h-5.052v-11.974h4.922q1.66.001 2.566.795.906.795.906 2.265c0 .982-.173 1.319-.525 1.804a2.35 2.35 0 0 1-1.365.939c.653.167 1.171.52 1.559 1.047zm-5.44-1.971h1.717q1.368.001 1.366-1.284c0-.861-.468-1.288-1.394-1.288h-1.69v2.58zm3.327 3.406q-.002-.64-.38-1.012c-.26-.245-.619-.361-1.093-.361h-1.854v2.696h1.876q1.457 0 1.459-1.323zM90.863 495.554v9.45h-2.637v-1.711q-.367.833-1.1 1.323c-.489.322-1.05.489-1.696.489-.985 0-1.76-.361-2.343-1.083-.575-.721-.87-1.718-.87-2.979v-5.489h2.61v5.132c0 .644.15 1.141.452 1.501q.455.536 1.222.536c.51 0 .949-.186 1.257-.555.31-.376.46-.904.46-1.594v-5.02h2.645M92.86 491.803c.288-.291.67-.434 1.136-.434.467 0 .849.143 1.136.434q.43.429.431 1.09c0 .438-.144.788-.431 1.075s-.669.434-1.136.434q-.703-.002-1.135-.434a1.46 1.46 0 0 1-.431-1.075c0-.427.144-.803.43-1.09m2.437 3.751v9.45h-2.623v-9.45zM99.732 492.474v12.53h-2.624v-12.53zM106.487 495.93q.702.49 1.028 1.335v-4.791h2.623v12.53h-2.623v-1.711a2.8 2.8 0 0 1-1.028 1.334c-.467.326-1.035.493-1.689.493a3.34 3.34 0 0 1-1.897-.586c-.561-.388-.999-.95-1.323-1.679q-.483-1.107-.481-2.58c0-.981.158-1.854.481-2.584.324-.729.762-1.284 1.323-1.675a3.24 3.24 0 0 1 1.897-.582c.712 0 1.215.167 1.689.489zm-2.206 2.658c-.346.403-.518.973-.518 1.695q0 1.08.518 1.695.516.61 1.358.609c.56 0 1.006-.21 1.358-.629.352-.418.532-.973.532-1.675 0-.699-.18-1.269-.532-1.68a1.71 1.71 0 0 0-1.358-.621c-.554 0-1.014.202-1.358.606"/><path fill="#1d1e22" fill-rule="evenodd" d="M59.046 505.368c-.406-.706.017-1.466-.565-2.172-.625-.776-1.697-.276-1.856.582-.306 1.637 1.944 2.63 3.045 1.796q-.317.115-.518-.066a.6.6 0 0 1-.112-.14zm-4.752-14.663h5.665c.983 0 1.72.268 1.807 1.3.018.232.03.515.03.861v3.6a7 7 0 0 1-.489-.307c-.46-.333-.8-.663-1.001-1.005a1.6 1.6 0 0 1-.23-.865c0-.508.212-.966.636-1.353.16-.148.348-.268.548-.361 0-.179-.012-.349-.024-.528-.011-.116-.023-.295-.064-.415a4.3 4.3 0 0 0-2.144 1.133q-1.282 1.233-1.284 2.979c0 1.164.16 1.319.466 1.885.318.57.76 1.083 1.348 1.544.489.388 1.23.834 2.232 1.358 0 1.257.023 2.665-.36 3.86-.776 2.412-2.82 2.377-4.999 2.377h-2.137v-16.063" clip-rule="evenodd"/><path fill="#1d1e22" fill-rule="evenodd" d="M66.619 496.411c-.289-1.707-1.266-3.122-2.75-3.766v4.899c0 4.131.76 8.658-3.816 9.221 1.684 0 3.592.159 4.787-1.284.848-1.025.884-2.487-.459-3.495l.012-4.167c6.383 3.437 3.074 8.309-.289 8.949h6.178v-16.055h-4.364c-.895 0-1.82.046-1.985 1.086 1.608.539 2.345 1.497 2.686-.268h.324l.117 4.888h-.441z" clip-rule="evenodd"/></g></g></g><defs><clipPath id="a"><path fill="#fff" d="M-705-4157H735v8298H-705z"/></clipPath><clipPath id="b"><path fill="#fff" d="M0 0h738v616H0z"/></clipPath></defs></svg>