<svg width="735" height="616" viewBox="0 0 735 616" fill="none" xmlns="http://www.w3.org/2000/svg">
<rect width="735" height="616" fill="#242424"/>
<g id="SJ-Build-HomePage-Design-Small" clip-path="url(#clip0_167_5)">
<rect width="1440" height="8298" transform="translate(-705 -4157)" fill="white"/>
<g id="Group 3">
<g id="Content">
<g id="Section 4">
<g id="Location Villas 1">
<g id="Location Villas 4" clip-path="url(#clip1_167_5)">
<g id="Clip path group">
<mask id="mask0_167_5" style="mask-type:luminance" maskUnits="userSpaceOnUse" x="0" y="0" width="738" height="616">
<g id="clip0_1_73">
<path id="Vector" d="M738 0H0V616H738V0Z" fill="white"/>
</g>
</mask>
<g mask="url(#mask0_167_5)">
<g id="Group">
<path id="Vector_2" d="M243.809 277.293C256.115 285.49 271.344 303.283 271.344 303.283C272.895 305.74 276.463 310.963 278.324 312.205C280.651 313.756 295 326.945 299.266 330.436C303.532 333.927 316.329 337.031 325.637 339.358C334.944 341.686 348.905 338.195 360.54 337.031C372.174 335.867 381.869 339.358 391.175 341.686C400.482 344.013 414.831 351.771 418.709 352.935C422.587 354.099 443.723 357.92 459.041 363.409C483.407 372.137 510.232 389.011 517.601 394.442C524.969 399.872 540.346 411.3 547.462 427.026C557.522 449.257 546.818 469.568 545.523 489.48C544.103 504.48 552.414 524.597 540.093 540.296C533.52 548.674 524.887 552.755 517.818 556.099L517.601 556.2C510.492 559.563 507.479 564.113 504.415 571.328C497.671 587.206 529.359 598.649 519.54 612.835C513.757 621.19 506.168 622.164 496.271 624.472C480.774 628.087 455.939 618.653 455.939 618.653C432.283 611.543 405.749 614.697 381.869 596.155C349.886 571.321 353.171 532.409 340.374 501.117C333.393 493.231 318.811 476.989 316.329 475.127C313.227 472.799 267.853 460.774 265.526 463.878C263.2 466.981 262.036 482.885 258.934 489.48C255.831 496.074 229.46 522.84 227.909 524.003C226.358 525.167 212.397 513.918 203.089 504.996C193.782 496.074 196.109 504.22 191.455 501.117C186.801 498.014 172.452 485.988 160.042 468.532C147.633 451.077 141.04 456.119 125.915 448.361C110.791 440.603 75.1124 425.862 69.683 420.044C64.3247 414.303 62.8134 403.918 61.2149 392.937L61.1513 392.502C59.0959 378.391 63.0903 356.038 63.0903 356.038V303.283C63.0903 286.344 50.2034 254 63.0903 227.252C69.6415 213.655 84.6784 193.892 87.1344 196.996C89.5904 200.099 97.6053 209.409 97.6053 209.409L116.608 222.598L163.533 248.975L189.128 258.673C189.128 258.673 225.034 264.786 243.809 277.293Z" fill="#F2F5F8"/>
<path id="Vector_3" d="M107.107 75.4483C112.426 70.715 123.007 66.5264 123.007 66.5264L121.456 81.2669C125.269 99.6926 133.129 136.738 134.059 137.514C134.99 138.29 189.387 201.842 216.469 233.521L233.338 246.516C233.338 246.516 230.836 249.377 228.879 250.783C218.663 258.125 209.344 248.111 197.272 244.577C170.451 236.724 156.344 227.892 134.059 211.023C128.995 207.189 121.884 207.081 121.456 200.743C121.159 196.35 125.73 194.993 126.497 190.657C128.268 180.655 117.819 177.357 113.118 168.353C103.599 150.122 94.8216 139.653 94.5028 119.088C94.2282 101.351 93.8559 87.2384 107.107 75.4483Z" fill="#FFEAC7"/>
<path id="Vector_4" d="M143.064 51.398C161.62 34.566 181.457 0 181.457 0H738.737V676.708H603.78L575.857 637.529L554.334 603.393C554.334 603.393 542.56 583.07 542.894 568.869C543.142 558.322 545.705 552.395 550.262 542.879C553.694 535.718 558.154 533.096 561.314 525.811C565.67 515.78 565.235 509.147 566.356 498.27C567.826 484.029 568.454 475.775 566.356 461.612C565.115 453.218 562.063 448.927 561.314 440.471C560.364 429.707 567.492 423.166 564.029 412.929C562.346 407.945 559.151 406.195 557.242 401.292C554.85 395.128 560.368 387.319 554.334 384.612C550.188 382.751 547.237 388.092 542.894 386.746C539.842 385.8 538.655 384.06 536.301 381.897C531.616 377.587 532.078 372.348 526.993 368.514C521.374 364.271 509.736 363.277 509.736 363.277C509.736 363.277 503.682 361.222 499.847 361.919C495.158 362.773 494.332 368.801 489.57 368.514C486.762 368.345 484.61 367.899 482.977 365.605C481.139 363.011 483.144 360.635 482.977 357.458C482.799 353.958 484.474 351.027 482.008 348.537C480.456 346.967 478.308 347.993 476.772 346.403C474.147 343.677 479.301 339.526 476.772 336.705C475.508 335.291 474.36 334.786 472.506 334.378C468.407 333.474 466.902 338.08 462.811 339.033C454.652 340.934 449.222 338.4 441.869 334.378C436.452 331.412 435.091 327.366 429.847 324.098C423.883 320.378 417.969 322.452 413.172 317.31C409.937 313.843 408.638 311.106 407.742 306.448C406.474 299.84 412.218 296.231 411.233 289.574C410.313 283.341 408.471 279.52 403.864 275.222C399.707 271.338 396.317 268.227 390.679 269.015C389.116 269.234 387.976 269.117 386.802 270.179C384.782 272.009 385.884 274.594 386.802 277.161C387.639 279.501 390.023 279.808 390.679 282.204C391.741 286.07 383.147 293.351 386.802 291.708C388.806 290.807 388.635 288.435 390.679 287.635C392.443 286.944 394.002 286.513 395.526 287.635C397.601 289.16 395.526 291.654 395.526 294.229C395.526 296.729 396.581 298.363 395.526 300.63C394.669 302.475 391.295 302.355 391.842 304.315C392.176 305.502 393.087 305.861 394.169 306.448C396.302 307.604 398.063 305.725 400.374 306.448C406.373 308.324 408.77 315.565 406.385 321.383C403.895 327.461 396.891 325.262 390.679 327.395C386.92 328.687 383.762 333.344 380.985 330.499C380.039 329.529 379.366 328.749 379.434 327.395C379.52 325.681 382.342 324.098 382.342 324.098L389.127 317.31C389.127 317.31 392.137 310.186 389.127 308.582C387.525 307.727 384.475 308.582 384.475 308.582C384.475 308.582 370.356 308.85 362.37 312.461C357.967 314.452 355.277 315.599 351.899 319.055C348.295 322.744 349.851 328.061 345.307 330.499C341.236 332.682 338.098 330.499 333.478 330.499C328.935 330.499 325.875 332.595 321.844 330.499C319.562 329.312 319.004 327.647 316.997 326.038C312.811 322.683 308.151 323.514 305.168 319.055C303.636 316.764 302.719 315.217 302.648 312.461C302.558 309.001 305.132 307.626 306.138 304.315C307.431 300.061 304.245 295.619 307.883 293.065C309.732 291.768 311.489 292.724 313.506 291.708C318.355 289.266 320.759 285.106 320.487 279.683L320.476 279.471C320.308 276.087 320.144 272.796 316.997 271.537C315.309 270.862 314.133 271.225 312.343 271.537C309.24 272.077 308.242 274.535 305.168 275.222C302.508 275.816 300.566 273.888 298.188 275.222C296.597 276.113 296.651 277.778 295.085 278.713C292.42 280.305 290.193 279.252 287.135 278.713C281.428 277.706 278.837 274.938 274.144 271.537C269.07 267.858 266.202 265.546 262.509 260.481C255.834 251.324 260.396 242.084 253.978 232.746C252.785 231.01 252.717 229.015 250.681 228.479C249.011 228.039 248.02 229.006 246.415 229.642C239.093 232.546 241.094 242.111 234.005 245.547C228.723 248.108 224.898 248.038 219.075 247.292C207.462 245.805 203.854 237.112 194.837 229.642C177.262 215.084 168.732 205.165 154.699 187.166C143.035 172.208 127.94 146.63 127.94 146.63C127.94 146.63 104.006 113.501 109.325 91.3526C111.714 81.4047 114.825 75.9589 121.347 68.0781C128.165 59.8389 135.143 58.5832 143.064 51.398Z" fill="#D7EBFF"/>
<path id="Vector_5" d="M435.087 101.228L437.937 99.7828C439.058 99.2134 440.295 98.917 441.548 98.917C442.804 98.917 444.041 99.2134 445.162 99.7828L446.015 100.216C447.136 100.785 448.373 101.082 449.63 101.082C450.882 101.082 452.119 100.785 453.24 100.216L454.093 99.7828C455.214 99.2134 456.455 98.917 457.708 98.917C458.964 98.917 460.201 99.2134 461.322 99.7828L464.173 101.228M435.087 108.605L437.937 107.158C439.058 106.589 440.295 106.292 441.548 106.292C442.804 106.292 444.041 106.589 445.162 107.158L446.015 107.591C447.136 108.16 448.373 108.457 449.63 108.457C450.882 108.457 452.119 108.16 453.24 107.591L454.093 107.158C455.214 106.589 456.455 106.292 457.708 106.292C458.964 106.292 460.201 106.589 461.322 107.158L464.173 108.605M435.087 115.98L437.937 114.533C439.058 113.964 440.295 113.668 441.548 113.668C442.804 113.668 444.041 113.964 445.162 114.533L446.015 114.967C447.136 115.536 448.373 115.833 449.63 115.833C450.882 115.833 452.119 115.536 453.24 114.967L454.093 114.533C455.214 113.964 456.455 113.668 457.708 113.668C458.964 113.668 460.201 113.964 461.322 114.533L464.173 115.98M435.087 123.355L437.937 121.91C439.058 121.341 440.295 121.045 441.548 121.045C442.804 121.045 444.041 121.341 445.162 121.91L446.015 122.342C447.136 122.911 448.373 123.207 449.63 123.207C450.882 123.207 452.119 122.911 453.24 122.342L454.093 121.91C455.214 121.341 456.455 121.045 457.708 121.045C458.964 121.045 460.201 121.341 461.322 121.91L464.173 123.355" stroke="#5C7B9A" stroke-width="1.5" stroke-linecap="round" stroke-linejoin="round"/>
<path id="Vector_6" d="M405.198 139.434H409.464C411.469 139.434 412.912 139.735 413.8 140.334C414.692 140.928 415.138 141.862 415.138 143.137C415.138 144.023 414.897 144.757 414.413 145.336C413.928 145.909 413.222 146.281 412.295 146.451V146.553C413.447 146.751 414.292 147.15 414.831 147.75C415.378 148.35 415.65 149.144 415.65 150.133C415.65 151.47 415.192 152.513 414.281 153.263C413.366 154.013 412.09 154.388 410.457 154.388H405.198V139.434ZM407.079 145.796H409.84C411.015 145.796 411.865 145.609 412.4 145.234C412.931 144.859 413.195 144.231 413.195 143.352C413.195 142.533 412.904 141.944 412.315 141.582C411.737 141.221 410.818 141.04 409.557 141.04H407.079V145.796ZM407.079 147.371V152.792H410.096C411.298 152.792 412.187 152.56 412.764 152.097C413.346 151.633 413.637 150.931 413.637 149.99C413.637 149.096 413.327 148.439 412.714 148.016C412.101 147.586 411.182 147.371 409.953 147.371H407.079ZM420.404 154.388H418.562V138.473H420.404V154.388ZM430.894 154.388L430.538 152.792H430.456C429.898 153.495 429.339 153.972 428.781 154.224C428.226 154.47 427.528 154.592 426.683 154.592C425.578 154.592 424.713 154.303 424.085 153.723C423.46 153.143 423.146 152.325 423.146 151.268C423.146 148.991 424.942 147.798 428.533 147.688L430.437 147.617V146.952C430.437 146.1 430.251 145.473 429.882 145.07C429.514 144.661 428.924 144.456 428.114 144.456C427.521 144.456 426.958 144.545 426.427 144.722C425.903 144.9 425.407 145.097 424.945 145.315L424.383 143.935C424.949 143.635 425.566 143.4 426.233 143.229C426.9 143.059 427.563 142.973 428.219 142.973C429.572 142.973 430.58 143.274 431.243 143.874C431.907 144.473 432.236 145.428 432.236 146.737V154.388H430.894ZM427.102 153.109C428.133 153.109 428.94 152.833 429.525 152.281C430.119 151.722 430.414 150.931 430.414 149.908V148.895L428.758 148.967C427.47 149.015 426.528 149.219 425.938 149.581C425.349 149.942 425.058 150.512 425.058 151.289C425.058 151.875 425.232 152.325 425.589 152.639C425.95 152.953 426.454 153.109 427.102 153.109ZM440.221 154.592C438.604 154.592 437.348 154.098 436.448 153.109C435.548 152.114 435.098 150.689 435.098 148.834C435.098 146.952 435.552 145.503 436.459 144.487C437.371 143.464 438.67 142.953 440.353 142.953C440.9 142.953 441.439 143.011 441.97 143.127C442.509 143.236 442.951 143.379 443.3 143.556L442.738 145.09C441.788 144.736 440.981 144.559 440.314 144.559C439.182 144.559 438.348 144.917 437.809 145.633C437.27 146.342 436.999 147.402 436.999 148.814C436.999 150.171 437.27 151.211 437.809 151.933C438.348 152.649 439.143 153.007 440.202 153.007C441.191 153.007 442.16 152.789 443.114 152.353V153.989C442.339 154.391 441.373 154.592 440.221 154.592ZM447.605 148.609L448.23 147.811L448.943 146.952L452.534 143.158H454.679L450.141 147.954L454.997 154.388H452.779L448.881 149.151L447.605 150.266V154.388H445.782V138.473H447.605V146.788L447.524 148.609H447.605ZM471.141 150.389C471.141 151.691 470.672 152.717 469.734 153.467C468.791 154.218 467.484 154.592 465.805 154.592C464.033 154.592 462.664 154.357 461.694 153.887V152.086C462.33 152.36 463.021 152.574 463.769 152.731C464.529 152.888 465.231 152.966 465.886 152.966C467.003 152.966 467.849 152.751 468.411 152.322C468.977 151.892 469.26 151.302 469.26 150.552C469.26 150.055 469.16 149.645 468.954 149.325C468.748 149.004 468.407 148.705 467.922 148.425C467.445 148.145 466.72 147.828 465.743 147.474C464.358 146.969 463.373 146.376 462.78 145.694C462.187 145.005 461.888 144.119 461.888 143.035C461.888 141.869 462.326 140.941 463.199 140.253C464.079 139.564 465.231 139.219 466.666 139.219C468.159 139.219 469.532 139.499 470.784 140.059L470.203 141.675C468.919 141.142 467.729 140.877 466.623 140.877C465.739 140.877 465.041 141.067 464.537 141.45C464.04 141.831 463.792 142.367 463.792 143.055C463.792 143.546 463.885 143.955 464.079 144.282C464.273 144.603 464.587 144.896 465.018 145.162C465.456 145.428 466.135 145.732 467.062 146.072C468.175 146.482 469.004 146.88 469.547 147.269C470.094 147.651 470.494 148.094 470.753 148.599C471.013 149.096 471.141 149.693 471.141 150.389ZM478.68 154.592C476.997 154.592 475.675 154.085 474.713 153.069C473.759 152.046 473.282 150.641 473.282 148.854C473.282 147.054 473.728 145.622 474.62 144.559C475.512 143.488 476.718 142.953 478.238 142.953C479.65 142.953 480.774 143.41 481.612 144.324C482.454 145.231 482.872 146.461 482.872 148.016V149.131H475.182C475.217 150.406 475.539 151.374 476.152 152.036C476.768 152.697 477.637 153.028 478.762 153.028C479.363 153.028 479.929 152.976 480.468 152.874C481.007 152.765 481.639 152.557 482.361 152.25V153.866C481.74 154.132 481.158 154.32 480.612 154.429C480.065 154.538 479.421 154.592 478.68 154.592ZM478.219 144.456C477.338 144.456 476.644 144.739 476.132 145.305C475.62 145.871 475.318 146.659 475.225 147.668H480.937C480.926 146.618 480.685 145.82 480.212 145.275C479.743 144.729 479.08 144.456 478.219 144.456ZM492.657 154.388L492.3 152.792H492.219C491.66 153.495 491.098 153.972 490.539 154.224C489.989 154.47 489.291 154.592 488.445 154.592C487.34 154.592 486.475 154.303 485.847 153.723C485.219 153.143 484.908 152.325 484.908 151.268C484.908 148.991 486.704 147.798 490.295 147.688L492.195 147.617V146.952C492.195 146.1 492.013 145.473 491.645 145.07C491.276 144.661 490.687 144.456 489.876 144.456C489.283 144.456 488.721 144.545 488.189 144.722C487.666 144.9 487.169 145.097 486.708 145.315L486.146 143.935C486.708 143.635 487.328 143.4 487.995 143.229C488.662 143.059 489.326 142.973 489.977 142.973C491.334 142.973 492.343 143.274 493.006 143.874C493.665 144.473 493.999 145.428 493.999 146.737V154.388H492.657ZM488.864 153.109C489.892 153.109 490.702 152.833 491.288 152.281C491.881 151.722 492.176 150.931 492.176 149.908V148.895L490.52 148.967C489.233 149.015 488.29 149.219 487.697 149.581C487.111 149.942 486.82 150.512 486.82 151.289C486.82 151.875 486.995 152.325 487.352 152.639C487.712 152.953 488.216 153.109 488.864 153.109Z" fill="#5C7B9A"/>
<path id="Vector_7" d="M28.452 156.405C27.2603 156.405 26.3236 156.804 25.6419 157.602C24.9602 158.4 24.6193 159.491 24.6193 160.875C24.6193 162.304 24.9501 163.408 25.6116 164.186C26.2731 164.958 27.2148 165.345 28.4368 165.345C29.2246 165.345 30.1108 165.198 31.0954 164.905V166.117C30.6258 166.289 30.1739 166.405 29.7396 166.466C29.3054 166.532 28.8054 166.565 28.2399 166.565C26.6089 166.565 25.3515 166.07 24.4679 165.079C23.5892 164.084 23.1499 162.678 23.1499 160.86C23.1499 159.718 23.3595 158.718 23.7786 157.859C24.2028 157.001 24.8163 156.339 25.6192 155.874C26.4271 155.41 27.3764 155.177 28.4671 155.177C29.6386 155.177 30.6587 155.394 31.5272 155.829L30.9667 157.011C30.083 156.607 29.2448 156.405 28.452 156.405ZM36.8596 166.565C35.6123 166.565 34.6327 166.188 33.9207 165.435C33.2137 164.678 32.8603 163.637 32.8603 162.314C32.8603 160.981 33.191 159.92 33.8525 159.132C34.514 158.339 35.4078 157.943 36.5338 157.943C37.5791 157.943 38.4123 158.281 39.0333 158.958C39.6546 159.63 39.9649 160.541 39.9649 161.693V162.519H34.2691C34.2944 163.463 34.5342 164.181 34.9887 164.67C35.4431 165.16 36.087 165.405 36.9201 165.405C37.3645 165.405 37.7862 165.368 38.1851 165.292C38.584 165.211 39.0512 165.057 39.5864 164.83V166.027C39.1268 166.224 38.6951 166.363 38.2911 166.443C37.8871 166.524 37.4099 166.565 36.8596 166.565ZM36.5187 159.056C35.8673 159.056 35.3523 159.266 34.9735 159.685C34.5948 160.104 34.3701 160.688 34.2994 161.435H38.5335C38.5234 160.658 38.3441 160.066 37.9957 159.663C37.6473 159.258 37.155 159.056 36.5187 159.056ZM47.7439 166.413V161.094C47.7439 160.417 47.5923 159.915 47.2894 159.587C46.9916 159.253 46.5219 159.087 45.8805 159.087C45.0273 159.087 44.406 159.324 44.0175 159.799C43.6335 160.268 43.4416 161.036 43.4416 162.102V166.413H42.0784V158.094H43.1767L43.3811 159.23H43.4567C43.7142 158.822 44.0752 158.506 44.5398 158.284C45.0044 158.056 45.5171 157.943 46.0775 157.943C47.0974 157.943 47.8552 158.19 48.3501 158.685C48.8449 159.18 49.0923 159.95 49.0923 160.996V166.413H47.7439ZM54.4472 165.451C54.624 165.451 54.8311 165.433 55.0685 165.398C55.3058 165.363 55.485 165.322 55.6063 165.276V166.322C55.4799 166.378 55.2829 166.431 55.0153 166.481C54.7528 166.537 54.4852 166.565 54.2126 166.565C52.5865 166.565 51.7736 165.709 51.7736 163.996V159.155H50.5994V158.503L51.7888 157.958L52.334 156.185H53.1445V158.094H55.5455V159.155H53.1445V163.958C53.1445 164.438 53.2582 164.807 53.4854 165.064C53.7177 165.322 54.0384 165.451 54.4472 165.451ZM61.1505 157.943C61.5193 157.943 61.845 157.973 62.1277 158.033L61.961 159.291C61.6531 159.22 61.3525 159.185 61.0597 159.185C60.6203 159.185 60.2116 159.306 59.8327 159.549C59.4588 159.791 59.166 160.127 58.9539 160.556C58.7418 160.981 58.6359 161.453 58.6359 161.973V166.413H57.2724V158.094H58.3935L58.5452 159.617H58.6057C58.9237 159.066 59.2998 158.65 59.7342 158.367C60.1685 158.084 60.6405 157.943 61.1505 157.943ZM68.6643 166.413L68.3994 165.231H68.3389C67.9247 165.751 67.5105 166.105 67.0963 166.292C66.6876 166.473 66.1699 166.565 65.5439 166.565C64.7257 166.565 64.0846 166.35 63.62 165.92C63.1554 165.491 62.9231 164.885 62.9231 164.102C62.9231 162.415 64.2537 161.531 66.9149 161.45L68.3234 161.397V160.905C68.3234 160.274 68.1873 159.809 67.9146 159.511C67.642 159.208 67.2049 159.056 66.6042 159.056C66.1648 159.056 65.7483 159.122 65.3543 159.253C64.9657 159.385 64.5996 159.531 64.256 159.693L63.8395 158.67C64.2588 158.448 64.7156 158.273 65.2104 158.147C65.7053 158.021 66.1951 157.958 66.6798 157.958C67.6847 157.958 68.432 158.18 68.9218 158.625C69.4116 159.069 69.6567 159.776 69.6567 160.746V166.413H68.6643ZM65.8542 165.466C66.6166 165.466 67.215 165.261 67.6494 164.852C68.0887 164.438 68.3083 163.852 68.3083 163.094V162.345L67.0812 162.397C66.1268 162.433 65.4303 162.584 64.9909 162.852C64.5566 163.12 64.3394 163.542 64.3394 164.117C64.3394 164.552 64.4709 164.885 64.7334 165.117C65.001 165.35 65.3745 165.466 65.8542 165.466ZM73.603 166.413H72.2395V154.624H73.603V166.413ZM80.4579 155.336H83.6162C85.1007 155.336 86.1715 155.558 86.8277 156.003C87.4893 156.443 87.8201 157.135 87.8201 158.079C87.8201 158.735 87.6409 159.279 87.2822 159.708C86.9238 160.132 86.4011 160.407 85.7143 160.534V160.609C86.5678 160.756 87.1938 161.051 87.5928 161.496C87.9969 161.94 88.1986 162.529 88.1986 163.261C88.1986 164.251 87.8604 165.024 87.1837 165.58C86.5073 166.135 85.563 166.413 84.3511 166.413H80.4579V155.336ZM81.8513 160.049H83.8966C84.7649 160.049 85.3963 159.91 85.7903 159.632C86.1839 159.354 86.3809 158.889 86.3809 158.238C86.3809 157.632 86.1637 157.195 85.7294 156.927C85.3005 156.66 84.6187 156.526 83.6845 156.526H81.8513V160.049ZM81.8513 161.216V165.231H84.0859C84.9747 165.231 85.6336 165.059 86.0629 164.716C86.4918 164.373 86.7067 163.852 86.7067 163.155C86.7067 162.494 86.4794 162.006 86.0249 161.693C85.5704 161.375 84.8886 161.216 83.98 161.216H81.8513ZM93.8947 166.565C92.6475 166.565 91.6679 166.188 90.9559 165.435C90.2489 164.678 89.8952 163.637 89.8952 162.314C89.8952 160.981 90.226 159.92 90.8876 159.132C91.5492 158.339 92.4431 157.943 93.5689 157.943C94.6141 157.943 95.4475 158.281 96.0684 158.958C96.6896 159.63 97.0003 160.541 97.0003 161.693V162.519H91.3041C91.3293 163.463 91.5694 164.181 92.0239 164.67C92.4784 165.16 93.1222 165.405 93.9552 165.405C94.3996 165.405 94.8212 165.368 95.2202 165.292C95.6193 165.211 96.0862 165.057 96.6214 164.83V166.027C96.1618 166.224 95.7302 166.363 95.3261 166.443C94.9224 166.524 94.445 166.565 93.8947 166.565ZM93.5538 159.056C92.9023 159.056 92.3873 159.266 92.0088 159.685C91.6299 160.104 91.4054 160.688 91.3344 161.435H95.5685C95.5584 160.658 95.3792 160.066 95.031 159.663C94.6823 159.258 94.1902 159.056 93.5538 159.056ZM104.249 166.413L103.984 165.231H103.923C103.509 165.751 103.095 166.105 102.681 166.292C102.272 166.473 101.754 166.565 101.128 166.565C100.31 166.565 99.6688 166.35 99.2042 165.92C98.7396 165.491 98.5077 164.885 98.5077 164.102C98.5077 162.415 99.8383 161.531 102.499 161.45L103.908 161.397V160.905C103.908 160.274 103.772 159.809 103.499 159.511C103.226 159.208 102.789 159.056 102.189 159.056C101.749 159.056 101.333 159.122 100.939 159.253C100.55 159.385 100.184 159.531 99.8406 159.693L99.4241 158.67C99.8433 158.448 100.3 158.273 100.795 158.147C101.29 158.021 101.78 157.958 102.264 157.958C103.269 157.958 104.017 158.18 104.506 158.625C104.996 159.069 105.241 159.776 105.241 160.746V166.413H104.249ZM101.439 165.466C102.201 165.466 102.8 165.261 103.234 164.852C103.673 164.438 103.893 163.852 103.893 163.094V162.345L102.666 162.397C101.711 162.433 101.014 162.584 100.575 162.852C100.141 163.12 99.924 163.542 99.924 164.117C99.924 164.552 100.055 164.885 100.318 165.117C100.586 165.35 100.959 165.466 101.439 165.466ZM111.157 166.565C109.96 166.565 109.028 166.198 108.362 165.466C107.695 164.729 107.362 163.673 107.362 162.299C107.362 160.905 107.698 159.832 108.369 159.079C109.046 158.322 110.008 157.943 111.255 157.943C111.659 157.943 112.058 157.986 112.452 158.071C112.851 158.152 113.179 158.258 113.437 158.389L113.02 159.526C112.318 159.263 111.72 159.132 111.225 159.132C110.387 159.132 109.768 159.397 109.369 159.928C108.97 160.453 108.771 161.238 108.771 162.284C108.771 163.289 108.97 164.059 109.369 164.594C109.768 165.125 110.359 165.39 111.142 165.39C111.874 165.39 112.593 165.229 113.3 164.905V166.117C112.725 166.416 112.01 166.565 111.157 166.565ZM120.943 166.413V161.094C120.943 160.417 120.791 159.915 120.488 159.587C120.19 159.253 119.721 159.087 119.079 159.087C118.236 159.087 117.618 159.322 117.224 159.791C116.835 160.261 116.64 161.036 116.64 162.117V166.413H115.277V154.624H116.64V158.079C116.64 158.534 116.615 158.922 116.565 159.246H116.656C116.903 158.842 117.254 158.526 117.708 158.299C118.163 158.071 118.676 157.958 119.246 157.958C120.256 157.958 121.016 158.2 121.526 158.685C122.036 159.165 122.291 159.935 122.291 160.996V166.413H120.943ZM41.9345 187.36V176.283H43.3279V186.118H48.1682V187.36H41.9345ZM57.106 183.185C57.106 184.544 56.7624 185.605 56.0756 186.367C55.3892 187.13 54.4398 187.512 53.2279 187.512C52.4756 187.512 51.8089 187.337 51.228 186.989C50.6474 186.635 50.2007 186.13 49.8873 185.474C49.5744 184.817 49.4177 184.054 49.4177 183.185C49.4177 181.832 49.7563 180.779 50.433 180.026C51.1093 179.269 52.0587 178.89 53.2807 178.89C54.4522 178.89 55.3814 179.276 56.0682 180.049C56.7601 180.817 57.106 181.862 57.106 183.185ZM50.8266 183.185C50.8266 184.231 51.0314 185.026 51.4401 185.572C51.8543 186.113 52.4628 186.383 53.2655 186.383C54.0586 186.383 54.662 186.113 55.0758 185.572C55.49 185.026 55.6971 184.231 55.6971 183.185C55.6971 182.14 55.4877 181.354 55.0685 180.829C54.6543 180.299 54.0458 180.034 53.243 180.034C51.6321 180.034 50.8266 181.084 50.8266 183.185ZM64.5667 187.36H58.4843V186.459L62.9534 180.102H58.7495V179.041H64.453V180.064L60.0522 186.307H64.5667V187.36ZM70.0355 187.512C68.788 187.512 67.8084 187.135 67.0963 186.383C66.3898 185.625 66.0361 184.585 66.0361 183.261C66.0361 181.928 66.3669 180.867 67.0285 180.079C67.6897 179.286 68.5836 178.89 69.7098 178.89C70.7549 178.89 71.5879 179.228 72.2092 179.905C72.8305 180.577 73.1407 181.488 73.1407 182.64V183.466H67.445C67.4702 184.41 67.7099 185.128 68.1644 185.618C68.6189 186.108 69.2626 186.352 70.096 186.352C70.5405 186.352 70.962 186.315 71.3611 186.239C71.7597 186.158 72.2271 186.004 72.7622 185.777V186.974C72.3027 187.171 71.871 187.31 71.467 187.39C71.0629 187.471 70.5858 187.512 70.0355 187.512ZM69.6947 180.003C69.0431 180.003 68.5281 180.213 68.1492 180.632C67.7707 181.052 67.5458 181.635 67.4752 182.382H71.7093C71.6992 181.605 71.5201 181.013 71.1714 180.61C70.8232 180.205 70.3307 180.003 69.6947 180.003ZM80.9198 187.36V182.041C80.9198 181.365 80.7682 180.862 80.4653 180.534C80.1674 180.2 79.6978 180.034 79.0564 180.034C78.2032 180.034 77.5819 180.271 77.1933 180.746C76.8094 181.216 76.6174 181.983 76.6174 183.049V187.36H75.2543V179.041H76.3526L76.5569 180.178H76.6326C76.8901 179.769 77.2511 179.453 77.7157 179.231C78.1803 179.003 78.693 178.89 79.2534 178.89C80.2733 178.89 81.0307 179.137 81.5255 179.632C82.0208 180.127 82.2682 180.898 82.2682 181.943V187.36H80.9198ZM88.3804 187.512C87.1333 187.512 86.1537 187.135 85.4416 186.383C84.7347 185.625 84.3814 184.585 84.3814 183.261C84.3814 181.928 84.7122 180.867 85.3734 180.079C86.035 179.286 86.9289 178.89 88.0547 178.89C89.1002 178.89 89.9332 179.228 90.5545 179.905C91.1754 180.577 91.486 181.488 91.486 182.64V183.466H85.7903C85.8155 184.41 86.0552 185.128 86.5097 185.618C86.9642 186.108 87.6079 186.352 88.4409 186.352C88.8854 186.352 89.3073 186.315 89.706 186.239C90.105 186.158 90.572 186.004 91.1071 185.777V186.974C90.648 187.171 90.216 187.31 89.8122 187.39C89.4081 187.471 88.9311 187.512 88.3804 187.512ZM88.0396 180.003C87.3884 180.003 86.8734 180.213 86.4945 180.632C86.1157 181.052 85.8911 181.635 85.8205 182.382H90.0546C90.0445 181.605 89.865 181.013 89.5167 180.61C89.1681 180.205 88.676 180.003 88.0396 180.003ZM96.379 186.398C96.5558 186.398 96.7629 186.38 97.0003 186.345C97.2376 186.31 97.4168 186.269 97.5382 186.224V187.269C97.4117 187.325 97.2147 187.378 96.9471 187.428C96.6846 187.484 96.417 187.512 96.1444 187.512C94.5183 187.512 93.7055 186.656 93.7055 184.943V180.102H92.5312V179.45L93.7206 178.905L94.2658 177.132H95.0764V179.041H97.4773V180.102H95.0764V184.905C95.0764 185.385 95.19 185.754 95.4172 186.011C95.6495 186.269 95.9703 186.398 96.379 186.398ZM104.62 185.064C104.62 185.842 104.33 186.446 103.749 186.875C103.168 187.3 102.353 187.512 101.303 187.512C100.207 187.512 99.3357 187.337 98.6892 186.989V185.746C99.6032 186.191 100.484 186.413 101.333 186.413C102.02 186.413 102.52 186.302 102.833 186.08C103.145 185.857 103.302 185.559 103.302 185.186C103.302 184.857 103.151 184.58 102.848 184.352C102.55 184.125 102.017 183.865 101.249 183.572C100.467 183.269 99.9162 183.011 99.5982 182.799C99.2802 182.582 99.0452 182.339 98.8939 182.072C98.7474 181.804 98.6741 181.478 98.6741 181.095C98.6741 180.413 98.9517 179.875 99.5075 179.481C100.063 179.087 100.825 178.89 101.795 178.89C102.739 178.89 103.623 179.077 104.446 179.45L103.984 180.534C103.14 180.18 102.381 180.003 101.704 180.003C101.138 180.003 100.709 180.095 100.416 180.276C100.123 180.453 99.9771 180.698 99.9771 181.011C99.9771 181.314 100.103 181.567 100.356 181.769C100.608 181.966 101.196 182.241 102.121 182.595C102.812 182.852 103.322 183.092 103.65 183.314C103.984 183.536 104.229 183.787 104.385 184.064C104.542 184.342 104.62 184.675 104.62 185.064Z" fill="black" fill-opacity="0.47"/>
<path id="Vector_8" d="M80.0612 136.544C77.7712 134.243 74.6652 132.95 71.427 132.95C68.1885 132.95 65.0829 134.243 62.7925 136.544M80.7891 115.361C78.5453 114.059 75.8787 113.706 73.3762 114.38C70.8736 115.054 68.7399 116.699 67.4442 118.954L84.3647 128.772C85.66 126.517 86.011 123.837 85.3405 121.322C84.6699 118.807 83.0326 116.663 80.7891 115.361Z" stroke="#DCC9A9" stroke-width="2" stroke-linecap="round" stroke-linejoin="round"/>
<path id="Vector_9" d="M78.6849 125.513C81.3995 120.813 82.3279 116.271 80.7612 115.367C79.194 114.463 75.7259 117.538 73.0128 122.238M75.8488 123.875L70.9364 132.384M56.1997 140.66C56.7097 140.407 57.2681 140.267 57.8374 140.251C58.475 140.237 59.1063 140.379 59.6772 140.664C60.2477 140.95 60.7402 141.37 61.1121 141.888C61.484 142.406 61.9765 142.826 62.5474 143.111C63.1178 143.397 63.7492 143.539 64.3871 143.526C65.0247 143.539 65.656 143.397 66.2269 143.111C66.7974 142.826 67.2899 142.406 67.6618 141.888C68.0337 141.37 68.5262 140.95 69.0967 140.664C69.6675 140.379 70.2989 140.237 70.9364 140.251C71.5744 140.237 72.2057 140.379 72.7762 140.664C73.3471 140.95 73.8396 141.37 74.2115 141.888C74.5834 142.406 75.0759 142.826 75.6464 143.111C76.2172 143.397 76.8486 143.539 77.4861 143.526C78.1241 143.539 78.7554 143.397 79.3259 143.111C79.8968 142.826 80.3893 142.406 80.7612 141.888C81.1331 141.37 81.6256 140.95 82.1961 140.664C82.7669 140.379 83.3983 140.237 84.0358 140.251C84.6048 140.267 85.1636 140.407 85.6732 140.66" stroke="#DCC9A9" stroke-width="2" stroke-linecap="round" stroke-linejoin="round"/>
<path id="Vector_10" d="M536.169 549.982C541.338 547.519 550.514 545.789 550.514 545.789L639.85 670.676L615.262 675.917C615.262 675.917 566.104 682.053 555.637 663.69C553.066 659.182 551.926 656.3 551.743 651.288C551.538 645.617 559.344 641.854 555.637 637.141C552.275 632.866 540.679 633.821 540.679 633.821C539.531 633.821 540.202 618.568 540.679 610.942C541.156 603.312 534.094 605.437 531.662 600.984C529.576 597.159 529.766 594.603 528.591 590.503C526.947 584.781 525.818 581.612 524.492 575.832C523.185 570.142 519.761 566.681 521.828 561.158C524.135 554.998 529.545 553.139 536.169 549.982Z" fill="#FFEAC7"/>
<path id="Vector_11" d="M-35.9048 313.726L-22.6568 319.295L-11.3013 322.722L-0.787001 325.507L39.1673 319.295L64.4017 315.439L93.421 313.726L156.087 312.655L285.833 395.334L293.193 403.472L288.567 412.685L297.819 418.682L304.759 434.963L318.007 452.523L372.261 506.074L415.157 549.555L449.645 594.323L463.106 610.173L466.468 611.671L488.759 631.807L503.69 653.014L520.304 689.427L525.559 700.564H520.304L485.184 635.663L464.998 616.384L460.372 613.816L454.062 609.103L412.214 552.553L369.317 509.717L315.483 455.739L299.922 437.317L292.983 420.397L285.833 417.398L249.243 484.01L239.57 498.362L161.974 448.241L138.422 489.794L135.268 491.939L55.9901 627.307H53.0462V624.953L133.165 491.939V489.794L157.348 444.598L111.716 415.47L75.7571 386.981L45.4758 360.635L39.1673 351.21L32.8588 325.507L-2.46929 330.219L-12.563 327.863L-24.1287 324.007L-35.9048 319.295V315.439" stroke="#B3BCC2" stroke-width="2"/>
<path id="Vector_12" d="M37.0645 323.793L37.6481 323.761M37.6481 323.761L153.563 317.367L206.976 351.21L189.312 386.552L175.853 414.182L159.03 442.03L111.506 412.472L52.2051 362.348L43.3731 351.21L37.6481 323.761Z" stroke="#B3BCC2" stroke-width="2"/>
<path id="Vector_13" d="M283.52 397.475L212.443 354.638L196.882 380.984L181.742 413.969L164.078 442.457L239.36 488.297L288.357 403.903L283.52 397.475Z" stroke="#B3BCC2" stroke-width="2"/>
<path id="Vector_14" d="M-17.6451 359.01L-36.066 347.567H-39.1685V352.61L-21.3293 362.695L39.7506 404.008L121.384 474.219L193.129 512.428L237.339 545.595L275.926 574.882L308.89 603.587L338.169 630.741L377.338 669.338L418.252 713.171L426.202 711.814L378.889 662.549L313.737 600.29L251.688 549.474L195.844 508.355L151.052 467.819L134.57 450.363L118.67 442.799L42.4653 399.547L-17.6451 359.01Z" stroke="#B3BCC2" stroke-width="2"/>
<path id="Vector_15" d="M520.645 571.003C518.353 568.702 515.247 567.41 512.009 567.41C508.77 567.41 505.664 568.702 503.376 571.003M521.374 549.819C519.129 548.515 516.461 548.166 513.959 548.837C511.458 549.512 509.325 551.157 508.026 553.411L524.946 563.229C526.245 560.975 526.594 558.295 525.923 555.781C525.252 553.267 523.616 551.122 521.374 549.819Z" stroke="#DCC9A9" stroke-width="2" stroke-linecap="round" stroke-linejoin="round"/>
<path id="Vector_16" d="M519.268 559.971C521.983 555.273 522.91 550.73 521.343 549.827C519.776 548.923 516.309 551.995 513.595 556.697M516.433 558.333L511.52 566.844M496.783 575.118C497.291 574.866 497.85 574.727 498.42 574.707C499.06 574.696 499.688 574.839 500.262 575.122C500.832 575.409 501.324 575.828 501.697 576.348C502.069 576.864 502.562 577.283 503.132 577.57C503.702 577.857 504.334 577.997 504.97 577.985C505.61 577.997 506.238 577.857 506.808 577.57C507.382 577.283 507.875 576.864 508.247 576.348C508.615 575.828 509.108 575.409 509.682 575.122C510.252 574.839 510.884 574.696 511.52 574.707C512.156 574.696 512.788 574.839 513.358 575.122C513.928 575.409 514.425 575.828 514.793 576.348C515.165 576.864 515.658 577.283 516.228 577.57C516.802 577.857 517.43 577.997 518.07 577.985C518.706 577.997 519.338 577.857 519.908 577.57C520.478 577.283 520.971 576.864 521.343 576.348C521.715 575.828 522.208 575.409 522.778 575.122C523.348 574.839 523.98 574.696 524.62 574.707C525.186 574.727 525.749 574.866 526.257 575.118" stroke="#DCC9A9" stroke-width="2" stroke-linecap="round" stroke-linejoin="round"/>
<path id="Vector_17" d="M239.06 408.081V396.172H241.584V405.994H246.413V408.081H239.06ZM250.272 403.511C250.272 404.411 250.419 405.094 250.711 405.555C251.01 406.017 251.493 406.25 252.161 406.25C252.823 406.25 253.298 406.021 253.586 405.563C253.879 405.102 254.026 404.419 254.026 403.511C254.026 402.611 253.879 401.932 253.586 401.482C253.293 401.032 252.812 400.807 252.145 400.807C251.482 400.807 251.005 401.032 250.711 401.482C250.419 401.928 250.272 402.603 250.272 403.511ZM256.566 403.511C256.566 404.993 256.175 406.153 255.393 406.991C254.612 407.825 253.523 408.244 252.128 408.244C251.254 408.244 250.484 408.054 249.816 407.673C249.148 407.289 248.635 406.739 248.277 406.021C247.919 405.303 247.74 404.465 247.74 403.511C247.74 402.025 248.128 400.866 248.904 400.043C249.68 399.217 250.771 398.806 252.177 398.806C253.051 398.806 253.822 398.996 254.49 399.376C255.157 399.752 255.67 400.299 256.029 401.013C256.387 401.723 256.566 402.557 256.566 403.511ZM264.872 408.081H257.682V406.614L261.899 400.873H257.934V398.976H264.725V400.586L260.621 406.184H264.872V408.081ZM270.449 400.571C269.922 400.571 269.51 400.741 269.211 401.075C268.913 401.409 268.742 401.878 268.698 402.495H272.183C272.172 401.878 272.012 401.409 271.703 401.075C271.394 400.741 270.976 400.571 270.449 400.571ZM270.799 408.244C269.334 408.244 268.188 407.84 267.363 407.029C266.538 406.223 266.125 405.074 266.125 403.593C266.125 402.068 266.505 400.889 267.265 400.059C268.031 399.221 269.087 398.806 270.433 398.806C271.719 398.806 272.721 399.17 273.437 399.904C274.154 400.637 274.512 401.649 274.512 402.941V404.147H268.641C268.669 404.853 268.878 405.404 269.268 405.8C269.659 406.195 270.207 406.393 270.913 406.393C271.461 406.393 271.98 406.339 272.468 406.223C272.957 406.11 273.467 405.928 273.999 405.68V407.6C273.565 407.817 273.101 407.976 272.607 408.081C272.113 408.189 271.51 408.244 270.799 408.244ZM284.934 408.081H282.451V402.762C282.451 402.107 282.334 401.614 282.101 401.288C281.867 400.959 281.496 400.792 280.985 400.792C280.29 400.792 279.788 401.025 279.479 401.49C279.17 401.952 279.015 402.72 279.015 403.798V408.081H276.531V398.976H278.429L278.762 400.14H278.901C279.178 399.702 279.558 399.368 280.041 399.147C280.529 398.918 281.083 398.806 281.702 398.806C282.76 398.806 283.564 399.093 284.112 399.667C284.66 400.237 284.934 401.063 284.934 402.142V408.081ZM291.261 400.571C290.734 400.571 290.322 400.741 290.024 401.075C289.725 401.409 289.554 401.878 289.511 402.495H292.995C292.985 401.878 292.824 401.409 292.515 401.075C292.206 400.741 291.788 400.571 291.261 400.571ZM291.611 408.244C290.146 408.244 289 407.84 288.175 407.029C287.35 406.223 286.937 405.074 286.937 403.593C286.937 402.068 287.317 400.889 288.078 400.059C288.843 399.221 289.899 398.806 291.245 398.806C292.531 398.806 293.533 399.17 294.25 399.904C294.966 400.637 295.324 401.649 295.324 402.941V404.147H289.454C289.481 404.853 289.69 405.404 290.081 405.8C290.471 406.195 291.02 406.393 291.725 406.393C292.274 406.393 292.792 406.339 293.28 406.223C293.769 406.11 294.279 405.928 294.811 405.68V407.6C294.377 407.817 293.913 407.976 293.419 408.081C292.925 408.189 292.322 408.244 291.611 408.244ZM301.179 406.265C301.613 406.265 302.134 406.168 302.742 405.978V407.829C302.123 408.104 301.363 408.244 300.462 408.244C299.469 408.244 298.744 407.995 298.288 407.495C297.838 406.991 297.612 406.234 297.612 405.23V400.838H296.424V399.791L297.791 398.957L298.508 397.037H300.096V398.976H302.644V400.838H300.096V405.23C300.096 405.583 300.193 405.842 300.389 406.013C300.59 406.18 300.853 406.265 301.179 406.265ZM310.942 405.377C310.942 406.312 310.616 407.022 309.964 407.51C309.318 407.999 308.35 408.244 307.057 408.244C306.395 408.244 305.831 408.197 305.364 408.104C304.897 408.019 304.46 407.887 304.053 407.716V405.66C304.514 405.877 305.033 406.06 305.608 406.207C306.189 406.355 306.699 406.428 307.139 406.428C308.04 406.428 308.491 406.168 308.491 405.645C308.491 405.451 308.431 405.292 308.312 405.171C308.192 405.047 307.986 404.911 307.693 404.756C307.399 404.601 307.008 404.419 306.52 404.213C305.82 403.918 305.304 403.647 304.973 403.399C304.647 403.147 304.409 402.863 304.257 402.541C304.11 402.215 304.037 401.816 304.037 401.347C304.037 400.536 304.349 399.911 304.973 399.473C305.603 399.027 306.493 398.806 307.644 398.806C308.74 398.806 309.807 399.042 310.844 399.52L310.095 401.312C309.639 401.118 309.212 400.959 308.816 400.831C308.42 400.707 308.016 400.644 307.603 400.644C306.87 400.644 306.504 400.842 306.504 401.238C306.504 401.463 306.621 401.653 306.854 401.816C307.093 401.979 307.611 402.223 308.409 402.541C309.12 402.828 309.641 403.1 309.972 403.348C310.304 403.6 310.548 403.887 310.705 404.213C310.863 404.539 310.942 404.927 310.942 405.377ZM234.663 420.99C233.713 420.99 232.977 421.347 232.456 422.065C231.935 422.775 231.675 423.772 231.675 425.048C231.675 427.701 232.671 429.028 234.663 429.028C235.499 429.028 236.511 428.818 237.7 428.403V430.521C236.723 430.929 235.632 431.13 234.427 431.13C232.695 431.13 231.371 430.607 230.453 429.559C229.536 428.504 229.077 426.995 229.077 425.028C229.077 423.791 229.302 422.709 229.753 421.782C230.203 420.847 230.849 420.133 231.691 419.637C232.538 419.14 233.528 418.888 234.663 418.888C235.819 418.888 236.981 419.167 238.148 419.73L237.334 421.782C236.888 421.568 236.44 421.382 235.99 421.227C235.54 421.068 235.097 420.99 234.663 420.99ZM239.939 419.508C239.939 418.698 240.39 418.294 241.291 418.294C242.192 418.294 242.642 418.698 242.642 419.508C242.642 419.893 242.528 420.195 242.3 420.412C242.078 420.622 241.741 420.73 241.291 420.73C240.39 420.73 239.939 420.323 239.939 419.508ZM242.528 430.967H240.045V421.863H242.528V430.967ZM248.977 429.152C249.411 429.152 249.933 429.055 250.541 428.865V430.715C249.922 430.991 249.162 431.13 248.261 431.13C247.267 431.13 246.543 430.882 246.087 430.382C245.636 429.877 245.411 429.121 245.411 428.116V423.725H244.222V422.678L245.59 421.844L246.307 419.924H247.894V421.863H250.443V423.725H247.894V428.116C247.894 428.469 247.992 428.729 248.188 428.9C248.388 429.067 248.651 429.152 248.977 429.152ZM251.086 421.863H253.806L255.524 426.984C255.67 427.43 255.771 427.957 255.825 428.566H255.874C255.934 428.004 256.05 427.48 256.224 426.984L257.91 421.863H260.572L256.721 432.131C256.368 433.081 255.863 433.795 255.206 434.265C254.555 434.738 253.792 434.974 252.918 434.974C252.49 434.974 252.069 434.928 251.656 434.835V432.864C251.955 432.934 252.281 432.973 252.633 432.973C253.073 432.973 253.456 432.837 253.781 432.566C254.113 432.298 254.37 431.894 254.555 431.351L254.702 430.901L251.086 421.863ZM271.467 420.99C270.517 420.99 269.781 421.347 269.26 422.065C268.739 422.775 268.479 423.772 268.479 425.048C268.479 427.701 269.474 429.028 271.467 429.028C272.303 429.028 273.315 428.818 274.504 428.403V430.521C273.527 430.929 272.436 431.13 271.231 431.13C269.499 431.13 268.174 430.607 267.257 429.559C266.34 428.504 265.881 426.995 265.881 425.028C265.881 423.791 266.106 422.709 266.557 421.782C267.008 420.847 267.653 420.133 268.495 419.637C269.342 419.14 270.332 418.888 271.467 418.888C272.623 418.888 273.785 419.167 274.952 419.73L274.137 421.782C273.692 421.568 273.245 421.382 272.794 421.227C272.343 421.068 271.901 420.99 271.467 420.99ZM280.619 423.457C280.092 423.457 279.68 423.628 279.381 423.962C279.083 424.295 278.912 424.765 278.868 425.381H282.353C282.342 424.765 282.182 424.295 281.873 423.962C281.564 423.628 281.145 423.457 280.619 423.457ZM280.969 431.13C279.504 431.13 278.358 430.727 277.533 429.916C276.708 429.109 276.295 427.961 276.295 426.479C276.295 424.955 276.675 423.775 277.435 422.945C278.2 422.107 279.256 421.692 280.603 421.692C281.889 421.692 282.891 422.057 283.607 422.79C284.324 423.523 284.682 424.536 284.682 425.828V427.034H278.811C278.838 427.74 279.047 428.291 279.438 428.686C279.829 429.082 280.377 429.28 281.083 429.28C281.631 429.28 282.15 429.226 282.638 429.109C283.127 428.997 283.637 428.814 284.169 428.566V430.486C283.735 430.704 283.271 430.863 282.777 430.967C282.283 431.076 281.68 431.13 280.969 431.13ZM295.104 430.967H292.621V425.649C292.621 424.994 292.504 424.501 292.271 424.175C292.038 423.845 291.666 423.679 291.155 423.679C290.46 423.679 289.958 423.911 289.649 424.377C289.34 424.838 289.185 425.606 289.185 426.685V430.967H286.701V421.863H288.598L288.932 423.027H289.071C289.348 422.589 289.728 422.255 290.211 422.034C290.699 421.805 291.253 421.692 291.872 421.692C292.93 421.692 293.734 421.98 294.282 422.554C294.83 423.124 295.104 423.95 295.104 425.028V430.967ZM301.496 429.152C301.931 429.152 302.452 429.055 303.059 428.865V430.715C302.441 430.991 301.681 431.13 300.779 431.13C299.786 431.13 299.061 430.882 298.605 430.382C298.155 429.877 297.93 429.121 297.93 428.116V423.725H296.741V422.678L298.109 421.844L298.825 419.924H300.413V421.863H302.962V423.725H300.413V428.116C300.413 428.469 300.511 428.729 300.706 428.9C300.907 429.067 301.17 429.152 301.496 429.152ZM308.678 423.457C308.151 423.457 307.739 423.628 307.44 423.962C307.141 424.295 306.97 424.765 306.927 425.381H310.412C310.401 424.765 310.241 424.295 309.932 423.962C309.622 423.628 309.204 423.457 308.678 423.457ZM309.028 431.13C307.562 431.13 306.417 430.727 305.592 429.916C304.767 429.109 304.354 427.961 304.354 426.479C304.354 424.955 304.734 423.775 305.494 422.945C306.26 422.107 307.315 421.692 308.662 421.692C309.948 421.692 310.95 422.057 311.666 422.79C312.383 423.523 312.741 424.536 312.741 425.828V427.034H306.87C306.897 427.74 307.106 428.291 307.497 428.686C307.888 429.082 308.436 429.28 309.142 429.28C309.69 429.28 310.209 429.226 310.697 429.109C311.186 428.997 311.696 428.814 312.228 428.566V430.486C311.794 430.704 311.329 430.863 310.836 430.967C310.342 431.076 309.739 431.13 309.028 431.13ZM319.841 421.692C320.178 421.692 320.457 421.716 320.68 421.762L320.493 424.094C320.292 424.039 320.047 424.012 319.76 424.012C318.967 424.012 318.348 424.214 317.903 424.621C317.463 425.028 317.244 425.599 317.244 426.332V430.967H314.76V421.863H316.641L317.008 423.391H317.13C317.412 422.883 317.792 422.472 318.27 422.162C318.753 421.848 319.277 421.692 319.841 421.692Z" fill="black"/>
<path id="Vector_18" d="M478.525 593.377C478.525 595.15 478.075 596.546 477.18 597.559C476.284 598.575 475.031 599.083 473.422 599.083C471.789 599.083 470.529 598.587 469.633 597.59C468.745 596.589 468.299 595.181 468.299 593.362C468.299 591.562 468.741 590.165 469.625 589.172C470.513 588.179 471.785 587.683 473.437 587.683C475.043 587.683 476.292 588.187 477.183 589.196C478.079 590.2 478.525 591.597 478.525 593.377ZM469.769 593.377C469.769 594.844 470.079 595.961 470.703 596.729C471.324 597.497 472.227 597.881 473.422 597.881C474.608 597.881 475.508 597.501 476.125 596.744C476.741 595.984 477.048 594.863 477.048 593.377C477.048 591.899 476.745 590.786 476.133 590.037C475.52 589.285 474.624 588.909 473.437 588.909C472.235 588.909 471.324 589.289 470.703 590.053C470.079 590.809 469.769 591.919 469.769 593.377ZM485.925 598.932L485.661 597.749H485.599C485.188 598.269 484.773 598.626 484.358 598.812C483.951 598.994 483.431 599.083 482.807 599.083C481.988 599.083 481.345 598.87 480.883 598.439C480.418 598.009 480.185 597.404 480.185 596.62C480.185 594.933 481.515 594.052 484.176 593.971L485.583 593.916V593.424C485.583 592.792 485.448 592.33 485.176 592.031C484.905 591.729 484.467 591.577 483.865 591.577C483.427 591.577 483.008 591.639 482.617 591.771C482.229 591.903 481.86 592.051 481.519 592.214L481.1 591.189C481.519 590.968 481.977 590.794 482.473 590.666C482.966 590.542 483.458 590.476 483.943 590.476C484.947 590.476 485.692 590.701 486.185 591.143C486.673 591.589 486.918 592.295 486.918 593.265V598.932H485.925ZM483.117 597.986C483.877 597.986 484.478 597.78 484.913 597.373C485.351 596.958 485.572 596.372 485.572 595.615V594.863L484.342 594.917C483.388 594.952 482.69 595.103 482.252 595.371C481.818 595.639 481.601 596.062 481.601 596.636C481.601 597.07 481.733 597.404 481.996 597.637C482.264 597.869 482.636 597.986 483.117 597.986ZM494.918 596.636C494.918 597.415 494.627 598.017 494.045 598.447C493.464 598.87 492.649 599.083 491.598 599.083C490.505 599.083 489.632 598.909 488.985 598.56V597.318C489.9 597.765 490.78 597.986 491.629 597.986C492.316 597.986 492.816 597.873 493.13 597.652C493.444 597.431 493.599 597.132 493.599 596.756C493.599 596.43 493.448 596.151 493.146 595.926C492.847 595.697 492.316 595.437 491.548 595.142C490.765 594.84 490.214 594.584 489.896 594.37C489.578 594.153 489.341 593.913 489.19 593.645C489.043 593.377 488.973 593.051 488.973 592.667C488.973 591.985 489.248 591.445 489.803 591.054C490.361 590.658 491.121 590.46 492.091 590.46C493.037 590.46 493.921 590.65 494.743 591.023L494.282 592.105C493.437 591.752 492.676 591.577 492.002 591.577C491.435 591.577 491.005 591.667 490.714 591.849C490.419 592.023 490.272 592.272 490.272 592.582C490.272 592.885 490.4 593.141 490.652 593.342C490.904 593.536 491.494 593.812 492.417 594.165C493.111 594.425 493.619 594.665 493.948 594.886C494.282 595.107 494.526 595.359 494.681 595.635C494.84 595.914 494.918 596.248 494.918 596.636ZM498.304 598.932H496.938V590.611H498.304V598.932ZM496.834 588.362C496.834 588.059 496.907 587.842 497.059 587.702C497.218 587.566 497.408 587.5 497.637 587.5C497.85 587.5 498.032 587.566 498.187 587.702C498.35 587.842 498.432 588.059 498.432 588.362C498.432 588.66 498.35 588.881 498.187 589.021C498.032 589.165 497.85 589.234 497.637 589.234C497.408 589.234 497.218 589.165 497.059 589.021C496.907 588.881 496.834 588.66 496.834 588.362ZM506.354 596.636C506.354 597.415 506.064 598.017 505.482 598.447C504.904 598.87 504.086 599.083 503.035 599.083C501.941 599.083 501.069 598.909 500.425 598.56V597.318C501.336 597.765 502.22 597.986 503.066 597.986C503.752 597.986 504.253 597.873 504.567 597.652C504.881 597.431 505.036 597.132 505.036 596.756C505.036 596.43 504.885 596.151 504.582 595.926C504.284 595.697 503.752 595.437 502.984 595.142C502.201 594.84 501.65 594.584 501.332 594.37C501.014 594.153 500.778 593.913 500.627 593.645C500.483 593.377 500.409 593.051 500.409 592.667C500.409 591.985 500.685 591.445 501.243 591.054C501.798 590.658 502.558 590.46 503.527 590.46C504.474 590.46 505.358 590.65 506.18 591.023L505.718 592.105C504.873 591.752 504.113 591.577 503.438 591.577C502.872 591.577 502.445 591.667 502.151 591.849C501.856 592.023 501.712 592.272 501.712 592.582C501.712 592.885 501.837 593.141 502.089 593.342C502.341 593.536 502.93 593.812 503.853 594.165C504.547 594.425 505.055 594.665 505.385 594.886C505.718 595.107 505.963 595.359 506.118 595.635C506.277 595.914 506.354 596.248 506.354 596.636ZM512.594 587.857H515.755C517.24 587.857 518.311 588.078 518.966 588.521C519.625 588.963 519.959 589.653 519.959 590.6C519.959 591.255 519.78 591.798 519.42 592.225C519.063 592.652 518.539 592.927 517.853 593.051V593.129C518.706 593.276 519.331 593.571 519.73 594.013C520.133 594.46 520.335 595.049 520.335 595.782C520.335 596.771 519.998 597.543 519.323 598.098C518.644 598.653 517.702 598.932 516.488 598.932H512.594V587.857ZM513.99 592.567H516.034C516.903 592.567 517.535 592.431 517.927 592.151C518.322 591.872 518.52 591.411 518.52 590.759C518.52 590.15 518.303 589.715 517.869 589.448C517.438 589.18 516.755 589.044 515.821 589.044H513.99V592.567ZM513.99 593.734V597.749H516.224C517.112 597.749 517.772 597.578 518.202 597.233C518.629 596.892 518.846 596.372 518.846 595.674C518.846 595.014 518.617 594.525 518.163 594.211C517.71 593.893 517.027 593.734 516.119 593.734H513.99ZM526.032 599.083C524.787 599.083 523.806 598.707 523.092 597.955C522.386 597.198 522.034 596.159 522.034 594.832C522.034 593.501 522.363 592.439 523.026 591.651C523.686 590.86 524.581 590.46 525.706 590.46C526.753 590.46 527.587 590.802 528.208 591.477C528.828 592.148 529.138 593.059 529.138 594.211V595.037H523.441C523.468 595.984 523.709 596.698 524.163 597.19C524.616 597.679 525.26 597.924 526.094 597.924C526.536 597.924 526.959 597.885 527.358 597.811C527.758 597.73 528.223 597.574 528.758 597.349V598.544C528.301 598.742 527.866 598.882 527.463 598.963C527.06 599.045 526.583 599.083 526.032 599.083ZM525.691 591.577C525.039 591.577 524.527 591.787 524.147 592.206C523.767 592.625 523.542 593.207 523.472 593.955H527.707C527.696 593.176 527.517 592.586 527.168 592.182C526.819 591.779 526.327 591.577 525.691 591.577ZM536.386 598.932L536.123 597.749H536.061C535.646 598.269 535.235 598.626 534.82 598.812C534.409 598.994 533.893 599.083 533.265 599.083C532.446 599.083 531.806 598.87 531.341 598.439C530.879 598.009 530.647 597.404 530.647 596.62C530.647 594.933 531.977 594.052 534.637 593.971L536.045 593.916V593.424C536.045 592.792 535.909 592.33 535.638 592.031C535.363 591.729 534.928 591.577 534.327 591.577C533.889 591.577 533.47 591.639 533.078 591.771C532.687 591.903 532.322 592.051 531.977 592.214L531.562 591.189C531.981 590.968 532.438 590.794 532.931 590.666C533.427 590.542 533.916 590.476 534.401 590.476C535.409 590.476 536.154 590.701 536.646 591.143C537.135 591.589 537.379 592.295 537.379 593.265V598.932H536.386ZM533.579 597.986C534.339 597.986 534.936 597.78 535.37 597.373C535.812 596.958 536.03 596.372 536.03 595.615V594.863L534.804 594.917C533.85 594.952 533.152 595.103 532.714 595.371C532.279 595.639 532.062 596.062 532.062 596.636C532.062 597.07 532.194 597.404 532.454 597.637C532.722 597.869 533.098 597.986 533.579 597.986ZM543.293 599.083C542.099 599.083 541.168 598.719 540.501 597.986C539.834 597.249 539.5 596.193 539.5 594.816C539.5 593.424 539.834 592.349 540.509 591.597C541.184 590.84 542.145 590.46 543.394 590.46C543.797 590.46 544.197 590.503 544.589 590.592C544.988 590.67 545.318 590.778 545.574 590.91L545.159 592.047C544.457 591.783 543.859 591.651 543.363 591.651C542.525 591.651 541.905 591.915 541.505 592.446C541.11 592.974 540.908 593.757 540.908 594.805C540.908 595.809 541.11 596.578 541.505 597.113C541.905 597.644 542.498 597.908 543.278 597.908C544.011 597.908 544.732 597.749 545.438 597.423V598.637C544.864 598.936 544.146 599.083 543.293 599.083ZM553.082 598.932V593.614C553.082 592.935 552.93 592.435 552.628 592.105C552.329 591.771 551.86 591.605 551.216 591.605C550.375 591.605 549.754 591.841 549.362 592.311C548.975 592.78 548.777 593.556 548.777 594.638V598.932H547.416V587.144H548.777V590.6C548.777 591.054 548.754 591.442 548.703 591.764H548.792C549.041 591.36 549.393 591.046 549.847 590.817C550.301 590.592 550.813 590.476 551.383 590.476C552.395 590.476 553.155 590.72 553.663 591.205C554.175 591.686 554.427 592.454 554.427 593.517V598.932H553.082Z" fill="black" fill-opacity="0.47"/>
<path id="Vector_19" d="M72.1972 523.836V539.45H92.2337V523.836L82.2154 515.202L72.1972 523.836ZM70.554 522.556L81.5744 513.056C81.7543 512.901 81.9812 512.816 82.2154 512.816C82.4497 512.816 82.6765 512.901 82.8565 513.056L93.8768 522.556C93.9897 522.653 94.0804 522.774 94.1429 522.913C94.2049 523.049 94.2375 523.2 94.2375 523.352V540.485C94.2375 540.761 94.132 541.025 93.9439 541.219C93.7562 541.413 93.5014 541.521 93.2358 541.521H71.1951C70.9294 541.521 70.6746 541.413 70.4869 541.219C70.2988 541.025 70.1934 540.761 70.1934 540.485V523.352C70.1934 523.2 70.2259 523.049 70.288 522.913C70.3504 522.774 70.4412 522.653 70.554 522.556Z" fill="#FF7F50"/>
<path id="Vector_20" d="M82.2155 545.788C85.214 545.788 87.6448 543.357 87.6448 540.357C87.6448 537.358 85.214 534.927 82.2155 534.927C79.2169 534.927 76.7861 537.358 76.7861 540.357C76.7861 543.357 79.2169 545.788 82.2155 545.788Z" fill="#FF7F50"/>
<path id="Vector_21" d="M113.461 303.218L114.417 303.882C88.887 340.665 76.8792 385.575 80.4777 430.882C84.0766 476.186 103.056 519.034 134.144 552.045C165.231 585.056 206.471 606.155 250.753 611.717C295.033 617.284 339.591 606.973 376.755 582.562L377.393 583.536L378.032 584.505C340.404 609.223 295.29 619.662 250.463 614.029C205.636 608.393 163.902 587.038 132.45 553.643C100.999 520.244 81.799 476.895 78.1582 431.064C74.5179 385.233 86.664 339.786 112.505 302.555L113.461 303.218ZM183.936 334.403L184.797 335.185C173.888 347.212 165.454 361.271 159.977 376.559C154.499 391.846 152.085 408.065 152.874 424.283C153.662 440.506 157.637 456.41 164.571 471.096C171.505 485.779 181.263 498.956 193.287 509.868C205.311 520.78 219.366 529.217 234.65 534.694C249.933 540.171 266.147 542.588 282.363 541.797C298.579 541.009 314.482 537.033 329.162 530.097C343.842 523.161 357.013 513.402 367.923 501.376L368.784 502.156L369.646 502.94C358.531 515.194 345.113 525.136 330.156 532.204C315.199 539.267 298.997 543.321 282.476 544.124C265.954 544.927 249.436 542.468 233.865 536.886C218.293 531.304 203.974 522.708 191.723 511.59C179.473 500.473 169.531 487.051 162.467 472.089C155.402 457.128 151.353 440.925 150.55 424.396C149.747 407.871 152.206 391.35 157.786 375.773C163.367 360.198 171.959 345.875 183.074 333.621L183.936 334.403ZM231.57 386.241L232.432 387.023C227.645 392.3 223.944 398.468 221.541 405.179C219.138 411.886 218.078 419 218.424 426.118C218.77 433.236 220.514 440.215 223.557 446.658C226.599 453.101 230.881 458.881 236.157 463.672C241.433 468.458 247.6 472.159 254.306 474.564C261.013 476.969 268.127 478.028 275.242 477.683C282.358 477.338 289.336 475.592 295.777 472.547C302.218 469.506 307.998 465.223 312.784 459.944L313.647 460.727L314.508 461.507C309.516 467.012 303.489 471.48 296.771 474.653C290.053 477.826 282.776 479.646 275.355 480.007C267.935 480.367 260.515 479.262 253.521 476.756C246.528 474.25 240.096 470.386 234.594 465.394C229.091 460.402 224.626 454.373 221.453 447.655C218.28 440.932 216.461 433.655 216.1 426.231C215.74 418.81 216.844 411.389 219.35 404.391C221.857 397.397 225.717 390.962 230.709 385.459L231.57 386.241ZM286.051 370.418C298.77 373.572 310 381.045 317.824 391.559C325.647 402.076 329.579 414.981 328.947 428.073L327.785 428.015L326.623 427.961C327.229 415.408 323.458 403.03 315.957 392.948C308.455 382.866 297.687 375.701 285.491 372.677L285.771 371.547L286.051 370.418Z" fill="#D5DBE1"/>
<path id="Vector_22" d="M80.3919 499.895C80.7731 500.426 80.9671 501.043 80.9671 501.741C80.9671 502.765 80.658 503.568 80.0398 504.146C79.422 504.724 78.5308 505.011 77.381 505.011H72.3286V493.037H77.2515C78.3583 493.037 79.2134 493.304 79.8172 493.832C80.421 494.363 80.7227 495.116 80.7227 496.097C80.7227 497.079 80.5502 497.416 80.198 497.901C79.8533 498.386 79.3929 498.696 78.8326 498.84C79.4864 499.007 80.0041 499.36 80.3919 499.887V499.895ZM74.9517 497.924H76.6694C77.5823 497.924 78.0348 497.498 78.0348 496.64C78.0348 495.779 77.5675 495.352 76.6407 495.352H74.9517V497.932V497.924ZM78.2791 501.33C78.2791 500.903 78.15 500.566 77.8983 500.318C77.6397 500.073 77.2802 499.957 76.8059 499.957H74.9517V502.653H76.8276C77.7975 502.653 78.2865 502.211 78.2865 501.33H78.2791Z" fill="#1D1E22"/>
<path id="Vector_23" d="M90.8632 495.554V505.004H88.2257V503.293C87.9814 503.848 87.6149 504.29 87.1263 504.616C86.6372 504.938 86.0769 505.105 85.43 505.105C84.4453 505.105 83.6693 504.744 83.0872 504.022C82.5121 503.301 82.2178 502.304 82.2178 501.043V495.554H84.8266V500.686C84.8266 501.33 84.9774 501.827 85.2791 502.187C85.5808 502.544 85.9908 502.723 86.5007 502.723C87.0111 502.723 87.4497 502.537 87.7584 502.168C88.0675 501.792 88.2183 501.264 88.2183 500.574V495.554H90.8562H90.8632Z" fill="#1D1E22"/>
<path id="Vector_24" d="M92.8609 491.803C93.1483 491.512 93.5291 491.369 93.9964 491.369C94.4634 491.369 94.8446 491.512 95.1319 491.803C95.4193 492.09 95.5632 492.451 95.5632 492.893C95.5632 493.331 95.4193 493.681 95.1319 493.968C94.8446 494.255 94.4634 494.402 93.9964 494.402C93.5291 494.402 93.1483 494.255 92.8609 493.968C92.5736 493.681 92.4297 493.32 92.4297 492.893C92.4297 492.466 92.5736 492.09 92.8609 491.803ZM95.2971 495.554V505.004H92.674V495.554H95.2971Z" fill="#1D1E22"/>
<path id="Vector_25" d="M99.7315 492.474V505.004H97.1084V492.474H99.7315Z" fill="#1D1E22"/>
<path id="Vector_26" d="M106.487 495.93C106.954 496.256 107.299 496.702 107.515 497.265V492.474H110.138V505.004H107.515V503.293C107.299 503.855 106.954 504.305 106.487 504.627C106.02 504.953 105.452 505.12 104.798 505.12C104.144 505.12 103.461 504.926 102.901 504.534C102.34 504.146 101.902 503.584 101.578 502.855C101.255 502.118 101.097 501.256 101.097 500.275C101.097 499.294 101.255 498.421 101.578 497.691C101.902 496.962 102.34 496.407 102.901 496.016C103.461 495.628 104.086 495.434 104.798 495.434C105.51 495.434 106.013 495.601 106.487 495.923V495.93ZM104.281 498.588C103.935 498.991 103.763 499.561 103.763 500.283C103.763 501.004 103.935 501.567 104.281 501.978C104.625 502.385 105.078 502.587 105.639 502.587C106.199 502.587 106.645 502.377 106.997 501.958C107.349 501.54 107.529 500.985 107.529 500.283C107.529 499.584 107.349 499.014 106.997 498.603C106.645 498.192 106.192 497.982 105.639 497.982C105.085 497.982 104.625 498.184 104.281 498.588Z" fill="#1D1E22"/>
<path id="Vector_27" fill-rule="evenodd" clip-rule="evenodd" d="M59.0457 505.368C58.6396 504.662 59.0635 503.902 58.4806 503.196C57.8563 502.42 56.7844 502.92 56.6254 503.778C56.3194 505.415 58.5687 506.408 59.67 505.574C59.4579 505.651 59.2873 505.628 59.1519 505.508C59.1104 505.473 59.0693 505.418 59.0398 505.368H59.0457ZM54.2935 490.705H59.9586C60.9421 490.705 61.6781 490.973 61.7665 492.005C61.784 492.237 61.796 492.52 61.796 492.866V496.466C61.5839 496.341 61.4191 496.241 61.307 496.159C60.8478 495.826 60.5062 495.496 60.306 495.154C60.1529 494.906 60.0765 494.615 60.0765 494.289C60.0765 493.781 60.2882 493.323 60.7125 492.936C60.8715 492.788 61.0599 492.668 61.2601 492.575C61.2601 492.396 61.2484 492.226 61.2364 492.047C61.2248 491.931 61.2127 491.752 61.1716 491.632C60.3471 491.807 59.6347 492.179 59.0282 492.765C58.1743 493.587 57.7442 494.58 57.7442 495.744C57.7442 496.908 57.9032 497.063 58.2096 497.629C58.5276 498.199 58.9693 498.712 59.558 499.173C60.047 499.561 60.7889 500.007 61.7902 500.531C61.7902 501.788 61.8135 503.196 61.4307 504.391C60.6535 506.803 58.6102 506.768 56.4311 506.768H54.2935V490.713V490.705Z" fill="#1D1E22"/>
<path id="Vector_28" fill-rule="evenodd" clip-rule="evenodd" d="M66.6187 496.411C66.3302 494.704 65.3529 493.289 63.8688 492.645V497.544C63.8688 501.675 64.6285 506.202 60.0527 506.765C61.737 506.765 63.645 506.924 64.8402 505.481C65.6884 504.456 65.7237 502.994 64.3811 501.986L64.3927 497.819C70.7764 501.256 67.4669 506.128 64.1042 506.768H70.2816V490.713H65.918C65.0229 490.713 64.0984 490.759 63.9335 491.799C65.5414 492.338 66.2775 493.296 66.6187 491.531H66.9429L67.0604 496.419H66.6187V496.411Z" fill="#1D1E22"/>
</g>
</g>
</g>
</g>
</g>
</g>
</g>
</g>
</g>
<defs>
<clipPath id="clip0_167_5">
<rect width="1440" height="8298" fill="white" transform="translate(-705 -4157)"/>
</clipPath>
<clipPath id="clip1_167_5">
<rect width="738" height="616" fill="white"/>
</clipPath>
</defs>
</svg>
