<svg xmlns="http://www.w3.org/2000/svg" width="16" height="11" fill="none" viewBox="0 0 16 11"><path fill="#242424" d="M0 0h16v11H0z"/><g clip-path="url(#a)"><path fill="#fff" d="M-229-7578h1440V720H-229z"/><rect width="357" height="54" x="-27.5" y="-21.5" stroke="#666a7a" rx="27"/><path fill="#137a08" d="M0 3.75h16v3.5H0z"/><path fill="#e6e7e8" d="M13.5 0h-11C.843 0 0 1.231 0 2.75v1h16v-1C16 1.231 15.157 0 13.5 0"/><path fill="#ec1c24" d="M0 8.25C0 9.769.843 11 2.5 11h11c1.657 0 2.5-1.231 2.5-2.75v-1H0z"/></g><defs><clipPath id="a"><path fill="#fff" d="M-229-7578h1440V720H-229z"/></clipPath></defs></svg>