<svg xmlns="http://www.w3.org/2000/svg" width="18" height="18" fill="none" viewBox="0 0 18 18"><path fill="#242424" d="M0 0h18v18H0z"/><g clip-path="url(#a)"><path fill="#fff" d="M-203-7799h1440V499H-203z"/><path fill="#1d1e22" d="m7.579 13.2 7.03-7.05-1.396-1.4-5.634 5.65-2.842-2.85-1.396 1.4zM1.994 18a1.92 1.92 0 0 1-1.408-.587A1.93 1.93 0 0 1 0 16V2Q0 1.176.586.588 1.172.002 1.994 0h13.961q.823 0 1.41.588.585.588.585 1.412v14a1.93 1.93 0 0 1-.586 1.413q-.585.588-1.409.587z"/></g><defs><clipPath id="a"><path fill="#fff" d="M-203-7799h1440V499H-203z"/></clipPath></defs></svg>