<svg xmlns="http://www.w3.org/2000/svg" fill="none" overflow="visible" preserveAspectRatio="none" style="display:block" viewBox="0 0 18 16"><path fill="var(--fill-0, #ff7f50)" d="M17.182 7.997H3.272V3.523a1.56 1.56 0 0 1 .226-.82c.15-.247.366-.45.626-.588.287-.151.614-.215.939-.184a2.74 2.74 0 0 0-.068 1.517c.12.502.381.962.753 1.328l.867.848a.82.82 0 0 0 .579.235.83.83 0 0 0 .579-.235l2.892-2.83a.79.79 0 0 0 0-1.13l-.867-.85A2.905 2.905 0 0 0 6.092.54a3.33 3.33 0 0 0-3.034.34 3.2 3.2 0 0 0-1.046 1.15c-.248.46-.377.974-.376 1.494v4.474H.818a.83.83 0 0 0-.578.234.79.79 0 0 0 0 1.132c.153.15.361.235.578.235h.818v2.4c.002.495.16.978.453 1.381.293.404.706.709 1.184.873v.948c0 .212.086.416.24.566a.827.827 0 0 0 1.156 0 .8.8 0 0 0 .24-.566v-.8h8.182v.8c0 .212.086.416.24.566a.83.83 0 0 0 1.157 0 .8.8 0 0 0 .24-.566v-.948c.476-.164.89-.47 1.183-.873s.451-.886.453-1.38V9.596h.818a.83.83 0 0 0 .578-.234.79.79 0 0 0 0-1.132.83.83 0 0 0-.578-.234M6.905 1.947c.23-.225.542-.352.868-.352s.637.127.867.352l.29.282-1.736 1.697-.29-.282a1.2 1.2 0 0 1-.36-.85 1.18 1.18 0 0 1 .36-.848zm7.822 10.051a.8.8 0 0 1-.24.566.83.83 0 0 1-.578.235H4.091a.83.83 0 0 1-.579-.235.8.8 0 0 1-.24-.566v-2.4h11.455z"/></svg>