<svg xmlns="http://www.w3.org/2000/svg" width="16" height="16" fill="none" viewBox="0 0 16 16"><path fill="#242424" d="M0 0h16v16H0z"/><g clip-path="url(#a)"><path fill="#fff" d="M-150-8132h1440V166H-150z"/><path fill="#fff" stroke="#fff" d="M.856.5h3a.36.36 0 0 1 .357.356c0 1.122.179 2.202.51 3.21h.002c.04.13.011.268-.091.37L2.748 6.322l-.257.257.165.323a13.48 13.48 0 0 0 5.865 5.866l.324.166 2.142-2.143a.35.35 0 0 1 .359-.086l.005.002c1.01.334 2.1.514 3.215.514a.36.36 0 0 1 .358.356v2.99a.36.36 0 0 1-.358.358C6.796 14.924.5 8.626.5.856A.36.36 0 0 1 .785.508z"/></g><defs><clipPath id="a"><path fill="#fff" d="M-150-8132h1440V166H-150z"/></clipPath></defs></svg>