<svg xmlns="http://www.w3.org/2000/svg" fill="none" overflow="visible" preserveAspectRatio="none" style="display:block" viewBox="0 0 16 16"><g fill="var(--fill-0, #ff7f50)"><path d="M.8 14.179V15.2a.8.8 0 0 0 .8.8h.8a.8.8 0 0 0 .8-.8v-.8h9.6v.8a.8.8 0 0 0 .8.8h.8a.8.8 0 0 0 .8-.8V14.18A1.59 1.59 0 0 0 16 12.8v-2.4a1.6 1.6 0 0 0-.982-1.476l-1.095-3.283a2.4 2.4 0 0 0-2.276-1.64H4.353a2.4 2.4 0 0 0-2.276 1.64L.982 8.924A1.6 1.6 0 0 0 0 10.4v2.4c0 .59.323 1.101.8 1.379m2-1.379a1.203 1.203 0 0 1-1.2-1.2 1.2 1.2 0 1 1 1.2 1.2m10.4 0a1.2 1.2 0 1 1 0-2.4 1.2 1.2 0 0 1 0 2.4M4.353 5.6h7.293a.8.8 0 0 1 .76.547L13.29 8.8H2.71l.884-2.653a.8.8 0 0 1 .759-.547"/><path d="M16 4.31V2.624L8.253.041a.8.8 0 0 0-.527.007L0 2.858V4.56l8.012-2.913z"/></g></svg>