<svg xmlns="http://www.w3.org/2000/svg" width="11" height="15" fill="none" viewBox="0 0 11 15"><path fill="#242424" d="M0 0h11v15H0z"/><g clip-path="url(#a)"><path fill="#fff" d="M-152.285-8204.17h1440v8298h-1440z"/><path fill="#fff" fill-rule="evenodd" d="M0 5.332A5.33 5.33 0 0 1 5.332 0a5.33 5.33 0 0 1 5.331 5.332c0 3.176-3.366 7.555-4.745 9.223a.756.756 0 0 1-1.165 0C3.367 12.887 0 8.508 0 5.332m3.427 0a1.905 1.905 0 1 0 3.81-.002 1.905 1.905 0 0 0-3.81.002" clip-rule="evenodd"/></g><defs><clipPath id="a"><path fill="#fff" d="M-152.285-8204.17h1440v8298h-1440z"/></clipPath></defs></svg>