<svg xmlns="http://www.w3.org/2000/svg" width="24" height="24" fill="none" viewBox="0 0 24 24"><path fill="#242424" d="M0 0h24v24H0z"/><g clip-path="url(#a)"><path fill="#fff" d="M-1266-8199H174V99h-1440z"/><path fill="#fff" d="M21.959 13.72v7.378h-4.278v-6.885c0-1.73-.619-2.91-2.167-2.91-1.182 0-1.886.796-2.195 1.565-.113.275-.142.658-.142 1.043v7.187h-4.28s.058-11.66 0-12.869h4.28v1.824l-.028.042h.028v-.042c.568-.875 1.583-2.126 3.856-2.126 2.815 0 4.926 1.84 4.926 5.792M4.421 2.025C2.958 2.026 2 2.986 2 4.25c0 1.235.93 2.224 2.365 2.224h.028c1.493 0 2.42-.989 2.42-2.224-.026-1.263-.926-2.223-2.391-2.223zM2.254 21.098h4.278V8.23H2.254z"/></g><defs><clipPath id="a"><path fill="#fff" d="M-1266-8199H174V99h-1440z"/></clipPath></defs></svg>