<svg xmlns="http://www.w3.org/2000/svg" fill="none" overflow="visible" preserveAspectRatio="none" style="display:block" viewBox="0 0 16 11"><path fill="var(--fill-0, #ff7f50)" d="M0 11V6.286q0-.531.22-.963t.58-.766v-2.2q0-.982.7-1.67A2.34 2.34 0 0 1 3.2 0h3.2q.46 0 .86.167.4.168.74.462.34-.295.74-.462.4-.165.86-.167h3.2q1 0 1.7.688.7.686.7 1.67v2.2q.36.333.58.765.22.433.22.963V11h-1.6V9.429H1.6V11zm8.8-7.071h4.8V2.357a.75.75 0 0 0-.23-.56.79.79 0 0 0-.57-.226H9.6a.78.78 0 0 0-.8.786zm-6.4 0h4.8V2.357a.75.75 0 0 0-.23-.56.79.79 0 0 0-.57-.226H3.2a.78.78 0 0 0-.8.786zm-.8 3.928h12.8V6.286a.75.75 0 0 0-.23-.56.79.79 0 0 0-.57-.226H2.4a.78.78 0 0 0-.8.786z"/></svg>