<svg xmlns="http://www.w3.org/2000/svg" width="16" height="16" fill="none" viewBox="0 0 16 16"><path fill="#242424" d="M0 0h16v16H0z"/><g clip-path="url(#a)"><path fill="#fff" d="M-1352.62-3018.12h1440v8298h-1440z"/><g fill="coral"><path d="M0 1.75V14c0 .965.785 1.75 1.75 1.75H14c.965 0 1.75-.785 1.75-1.75V1.75C15.75.785 14.965 0 14 0H1.75C.785 0 0 .785 0 1.75M14.002 14H1.75V1.75H14z"/><path d="M10.5 7.875h1.75V3.5H7.875v1.75H10.5zM7.875 10.5H5.25V7.875H3.5v4.375h4.375z"/></g></g><defs><clipPath id="a"><path fill="#fff" d="M-1352.62-3018.12h1440v8298h-1440z"/></clipPath></defs></svg>